<?xml version="1.0" standalone="no"?>
<!DOCTYPE svg PUBLIC "-//W3C//DTD SVG 1.1//EN" "http://www.w3.org/Graphics/SVG/1.1/DTD/svg11.dtd" >
<svg xmlns="http://www.w3.org/2000/svg" xmlns:xlink="http://www.w3.org/1999/xlink" version="1.1">
<metadata>
Created by FontForge 20161003 at Tue Mar 28 22:06:00 2017
 By www-data
Copyright (c) Village Type &#38; Design LLC, 2004. All rights reserved.
</metadata>
<defs>
<font id="GalaxiePolarisLight" horiz-adv-x="700" >
  <font-face 
    font-family="GalaxiePolarisLight"
    font-weight="400"
    font-stretch="normal"
    units-per-em="1000"
    panose-1="2 11 5 4 3 3 1 2 1 3"
    ascent="800"
    descent="-200"
    x-height="530"
    cap-height="780"
    bbox="-86 -210 1443 1040"
    underline-thickness="30"
    underline-position="-130"
    unicode-range="U+000D-2122"
  />
<missing-glyph horiz-adv-x="240" 
 />
    <glyph glyph-name=".notdef" horiz-adv-x="240" 
 />
    <glyph glyph-name=".null" horiz-adv-x="0" 
 />
    <glyph glyph-name="nonmarkingreturn" unicode="&#xd;" horiz-adv-x="240" 
 />
    <glyph glyph-name="space" unicode=" " horiz-adv-x="240" 
 />
    <glyph glyph-name="exclam" unicode="!" horiz-adv-x="200" 
d="M126 0h-52v52h52v-52zM130 780l-20 -590h-20l-20 590h60z" />
    <glyph glyph-name="quotedbl" unicode="&#x22;" horiz-adv-x="340" 
d="M268 780l-19 -250h-18l-19 250h56zM128 780l-19 -250h-18l-19 250h56z" />
    <glyph glyph-name="numbersign" unicode="#" horiz-adv-x="680" 
d="M207 250h200l66 264h-200zM161 216h-121v34h130l66 264h-126v34h135l54 216h37l-54 -216h200l54 216h37l-54 -216h121v-34h-130l-66 -264h126v-34h-135l-54 -216h-37l54 216h-200l-54 -216h-37z" />
    <glyph glyph-name="dollar" unicode="$" horiz-adv-x="534" 
d="M109 505q0 -27 8.5 -43t26 -25.5t44.5 -14.5t64 -10l53 208q-5 1 -10 1h-10q-30 0 -61 -6t-56.5 -19.5t-42 -35.5t-16.5 -55zM444 265q0 31 -12.5 50.5t-34 31t-51.5 17t-66 9.5l-58 -228q11 -1 23 -1.5t25 -0.5q30 0 60.5 5.5t56 19.5t41.5 37.5t16 59.5zM350 653
q54 -8 89 -25t61 -34l-10 -37q-27 18 -61.5 35.5t-87.5 24.5l-52 -209q35 -4 70 -11t63 -22t45.5 -40.5t17.5 -67.5q0 -44 -18 -74.5t-48 -49.5t-70 -27.5t-84 -8.5h-27t-25 2l-27 -109h-37l29 115q-42 9 -71 24.5t-52 30.5l10 37q23 -16 51.5 -31.5t70.5 -24.5l56 226
q-31 3 -62 9.5t-56 20t-40.5 36.5t-15.5 61q0 41 18 69.5t48.5 47.5t70.5 27.5t84 8.5h12t12 -1l27 108h37z" />
    <glyph glyph-name="percent" unicode="%" horiz-adv-x="1056" 
d="M807 -10q-85 0 -134.5 51t-49.5 157q0 105 49.5 155.5t134.5 50.5q84 0 134 -51t50 -155q0 -106 -49.5 -157t-134.5 -51zM807 371q-30 0 -57 -9t-47 -29.5t-32 -53.5t-12 -81t12 -81.5t32 -54.5t47 -30t57 -9t56.5 9t47 30t32.5 54.5t12 81.5t-12 81t-32.5 53.5t-47 29.5
t-56.5 9zM296 0h-42l506 764h42zM249 774q85 0 134.5 -51t49.5 -157q0 -105 -49.5 -155.5t-134.5 -50.5q-84 0 -134 51t-50 155q0 106 49.5 157t134.5 51zM249 393q30 0 57 9t47 29.5t32 53.5t12 81t-12 81.5t-32 54.5t-47 30t-57 9t-56.5 -9t-47 -30t-32.5 -54.5t-12 -81.5
t12 -81t32.5 -53.5t47 -29.5t56.5 -9z" />
    <glyph glyph-name="ampersand" unicode="&#x26;" horiz-adv-x="740" 
d="M139 623q0 -48 30.5 -88t73.5 -79q44 19 80 35.5t61.5 36t39.5 43t14 56.5q0 63 -40 95.5t-106 32.5q-71 0 -112 -34.5t-41 -97.5zM290 25q77 0 140.5 31t101.5 88l-298 270q-75 -35 -111 -85t-36 -125q0 -60 24 -95.5t57 -54t67 -24t55 -5.5zM642 389q0 -20 -2 -48
t-9 -60t-18.5 -66t-31.5 -66l122 -109v-50l-143 129q-101 -129 -270 -129q-44 0 -87.5 10.5t-78 35t-56 66t-21.5 102.5q0 86 43 143.5t116 91.5q-19 18 -38 37.5t-34 42t-24.5 48t-9.5 55.5q0 80 50.5 124t141.5 44q52 0 87.5 -13.5t57 -36t31 -51.5t9.5 -60
q0 -40 -16.5 -69t-44.5 -51.5t-66 -41t-80 -37.5l282 -254q18 33 29 63.5t16 58t6.5 51t1.5 41.5q0 35 -6 71.5t-15 67.5l37 5q9 -27 15 -67.5t6 -77.5z" />
    <glyph glyph-name="quotesingle" unicode="'" horiz-adv-x="200" 
d="M128 780l-19 -250h-18l-19 250h56z" />
    <glyph glyph-name="parenleft" unicode="(" horiz-adv-x="240" 
d="M88 350q0 -74 7 -137t20.5 -120t33.5 -111.5t46 -111.5h-35q-22 39 -42 91t-35 114t-24 132t-9 143q0 74 9 143.5t24 131.5t35 114t42 91h35q-26 -57 -46 -111.5t-33.5 -111.5t-20.5 -120t-7 -137z" />
    <glyph glyph-name="parenright" unicode=")" horiz-adv-x="240" 
d="M152 350q0 74 -7 137t-20.5 120t-33.5 111.5t-46 111.5h35q23 -39 43 -91t35 -114t23.5 -131.5t8.5 -143.5q0 -73 -8.5 -143t-23.5 -132t-35 -114t-43 -91h-35q26 57 46 111.5t33.5 111.5t20.5 120t7 137z" />
    <glyph glyph-name="asterisk" unicode="*" horiz-adv-x="300" 
d="M56 546l79 94l-119 30l11 34l113 -46l-8 122h36l-8 -122l113 46l11 -34l-119 -30l79 -94l-29 -21l-65 103l-65 -103z" />
    <glyph glyph-name="plus" unicode="+" horiz-adv-x="490" 
d="M228 373h-178v34h178v178h34v-178h178v-34h-178v-178h-34v178z" />
    <glyph glyph-name="comma" unicode="," horiz-adv-x="200" 
d="M127 52l-60 -216h-26l32 216h54z" />
    <glyph glyph-name="hyphen" unicode="-" horiz-adv-x="360" 
d="M50 318v34h260v-34h-260z" />
    <glyph glyph-name="period" unicode="." horiz-adv-x="200" 
d="M130 0h-60v60h60v-60z" />
    <glyph glyph-name="slash" unicode="/" horiz-adv-x="300" 
d="M55 -90h-40l230 960h40z" />
    <glyph glyph-name="zero" unicode="0" 
d="M350 774q146 0 209 -99t63 -293q0 -97 -15 -170.5t-47.5 -122.5t-84 -74t-125.5 -25q-146 0 -209 99t-63 293q0 97 15 170.5t47.5 122.5t84.5 74t125 25zM350 26q117 0 174.5 84.5t57.5 271.5t-57.5 271.5t-174.5 84.5t-174.5 -84.5t-57.5 -271.5t57.5 -271.5
t174.5 -84.5z" />
    <glyph glyph-name="one" unicode="1" 
d="M600 0h-490v37h221v672q-44 -61 -106.5 -95.5t-129.5 -53.5v35q39 11 70.5 24t59.5 33t55 49.5t56 72.5h34v-737h230v-37z" />
    <glyph glyph-name="two" unicode="2" 
d="M72 0q0 80 21.5 137.5t59 99.5t89 71.5t112.5 53.5q52 20 91.5 37.5t66.5 39t41.5 50t15.5 70.5q2 50 -15 84t-46.5 55t-68.5 30.5t-83 9.5q-112 0 -166 -38.5t-70 -111.5l-40 5q8 40 27 73.5t51.5 57.5t81 37t116.5 13q116 0 184 -54t68 -161q0 -54 -22.5 -90.5
t-57 -62.5t-77 -43.5t-81.5 -32.5q-119 -46 -185.5 -115.5t-68.5 -177.5l146 1h366v-38h-556z" />
    <glyph glyph-name="three" unicode="3" 
d="M622 202q0 -48 -17 -87.5t-52.5 -67t-89.5 -42.5t-128 -15q-67 0 -115.5 13.5t-80 38t-48.5 58t-21 72.5l39 6q4 -34 17.5 -61.5t40 -47.5t67.5 -31t101 -12q57 -1 102.5 9t77.5 31.5t49.5 55t17.5 80.5q0 57 -20.5 91t-52 52t-68.5 23.5t-69 5.5h-134v36h134
q36 0 70 5.5t61 23t43.5 49.5t16.5 85q0 45 -17.5 76.5t-48 51.5t-71 29t-86.5 8q-54 -1 -93 -10t-65.5 -28t-42 -47t-23.5 -66l-39 6q8 40 25 73.5t48 57.5t77.5 37t112.5 13q51 0 98 -11t83.5 -35t58 -62.5t21.5 -92.5q0 -40 -11.5 -71.5t-31 -54.5t-45 -36.5t-52.5 -16.5
v-1q27 -3 55.5 -14t52 -33.5t38.5 -57.5t15 -86z" />
    <glyph glyph-name="four" unicode="4" 
d="M451 555l1 168l-108 -161l-149 -216l-89 -126l127 1h218v334zM487 186v-186h-36v186h-386v29l384 559h38v-553h148v-35h-148z" />
    <glyph glyph-name="five" unicode="5" 
d="M124 395l36 369h414v-36h-383l-29 -300q29 29 82.5 48.5t123.5 19.5q122 0 187 -66.5t65 -184.5q0 -63 -20.5 -111t-56.5 -80t-85.5 -48t-108.5 -16q-68 0 -116 13t-79.5 37.5t-48.5 59.5t-22 78l39 6q5 -37 18 -66.5t38.5 -50t67 -31.5t103.5 -10q107 2 169 55.5
t62 163.5q0 103 -52 158t-160 57q-72 1 -126 -20.5t-77 -55.5z" />
    <glyph glyph-name="six" unicode="6" 
d="M380 442q-46 0 -90 -13.5t-77.5 -40.5t-54 -67t-20.5 -92v-16t1 -16q23 -86 78 -130t143 -42q42 1 81.5 12.5t70 37t49 65t18.5 95.5t-15 95t-42 63.5t-63.5 36.5t-78.5 12zM390 739q-59 1 -108.5 -19.5t-85.5 -64.5t-56 -112t-20 -161q0 -37 1.5 -55.5t0.5 -19.5
q14 50 42.5 83.5t64.5 53t75.5 27.5t75.5 8q54 0 98.5 -15.5t76 -46t48.5 -76.5t17 -106q0 -59 -19.5 -104.5t-54.5 -77t-82.5 -47.5t-103.5 -16q-147 0 -213.5 97.5t-66.5 294.5q0 192 81 292t230 100q56 0 96 -12t66.5 -32t41.5 -47.5t22 -59.5l-39 -8q-8 31 -21.5 54
t-35.5 38.5t-54 23t-77 8.5z" />
    <glyph glyph-name="seven" unicode="7" 
d="M210 0l302 600l68 130l-163 -1h-337v35h542v-31l-369 -733h-43z" />
    <glyph glyph-name="eight" unicode="8" 
d="M350 -10q-133 0 -203 52.5t-70 147.5q0 55 15 91.5t38.5 59t51.5 34t55 17.5q-25 6 -50 19t-44.5 34.5t-31.5 52t-12 71.5q0 54 18.5 93t51.5 64t79 36.5t102 11.5t102 -11.5t79 -36.5t51.5 -64t18.5 -93q0 -41 -12 -71.5t-31.5 -52t-44.5 -34.5t-50 -19q27 -6 55 -17.5
t51.5 -34t38.5 -59t15 -91.5q0 -95 -70 -147.5t-203 -52.5zM350 410q38 0 75.5 6.5t68.5 24t50 49t19 82.5q0 44 -16 75.5t-44.5 51.5t-67.5 29.5t-85 9.5t-85 -9.5t-67.5 -29.5t-44.5 -51.5t-16 -75.5q0 -51 19 -82.5t50 -49t69 -24t75 -6.5zM350 26q50 0 92.5 9t74 28.5
t49 51t17.5 77.5q0 60 -22 96t-56.5 55t-75.5 25t-79 6t-79 -6t-75.5 -25t-56.5 -55t-22 -96q0 -46 17.5 -77.5t49 -51t74 -28.5t92.5 -9z" />
    <glyph glyph-name="nine" unicode="9" 
d="M320 322q47 0 90.5 13.5t77 40.5t54 67t20.5 92v16t-1 16q-23 86 -78 130t-143 42q-42 -1 -81.5 -12.5t-70 -37t-49 -65t-18.5 -95.5q0 -55 15 -94.5t42 -64t63.5 -36.5t78.5 -12zM310 25q59 -1 108.5 19.5t85.5 64.5t56 112t20 161q0 37 -1.5 55.5t-0.5 19.5
q-14 -50 -42.5 -83.5t-64.5 -53t-75.5 -27.5t-75.5 -8q-54 0 -98.5 15.5t-76 46t-48.5 76.5t-17 106q0 59 19.5 104.5t54.5 77t82.5 47.5t103.5 16q147 0 213.5 -97.5t66.5 -294.5q0 -192 -81 -292t-230 -100q-56 0 -96 12t-66.5 32t-41.5 48t-22 59l39 8q8 -31 21.5 -54
t35.5 -38.5t54 -23t77 -8.5z" />
    <glyph glyph-name="colon" unicode=":" horiz-adv-x="200" 
d="M130 380h-60v60h60v-60zM130 0h-60v60h60v-60z" />
    <glyph glyph-name="semicolon" unicode=";" horiz-adv-x="200" 
d="M130 380h-60v60h60v-60zM127 52l-60 -216h-26l32 216h54z" />
    <glyph glyph-name="less" unicode="&#x3c;" horiz-adv-x="490" 
d="M84 390l165 -84l191 -100v-37l-390 205v32l390 205v-37l-191 -100z" />
    <glyph glyph-name="equal" unicode="=" horiz-adv-x="490" 
d="M50 453v34h390v-34h-390zM50 293v34h390v-34h-390z" />
    <glyph glyph-name="greater" unicode="&#x3e;" horiz-adv-x="490" 
d="M406 390l-165 84l-191 100v37l390 -205v-32l-390 -205v37l191 100z" />
    <glyph glyph-name="question" unicode="?" horiz-adv-x="600" 
d="M296 0h-52v52h52v-52zM252 190q-23 63 -23.5 101.5t13 62.5t36 37t44.5 23q27 13 56.5 26.5t54 32.5t40 46t15.5 67q0 44 -15 75.5t-41.5 52.5t-61.5 31t-76 10q-52 0 -89.5 -11.5t-63 -33.5t-40 -52t-19.5 -68l-38 4q5 42 21.5 78t46.5 62.5t75 41t107 14.5
q52 0 95.5 -13.5t74.5 -39.5t48.5 -63.5t17.5 -86.5q0 -48 -20 -81t-49 -55t-60.5 -36.5t-55.5 -25.5q-29 -14 -48.5 -26t-28.5 -31.5t-6.5 -52.5t16.5 -89h-26z" />
    <glyph glyph-name="at" unicode="@" horiz-adv-x="1030" 
d="M670 384q-12 23 -28 44.5t-38.5 38.5t-52 27.5t-68.5 10.5t-71.5 -14t-56.5 -41t-37 -65.5t-13 -86.5t13 -86.5t37 -65.5t56.5 -41t71.5 -14t68.5 10.5t52 27.5t38.5 39t28 44v172zM711 100h9q66 0 109.5 20.5t69 58t35.5 91.5t10 121q0 77 -24 145t-75.5 119t-132.5 81
t-195 30q-105 0 -185 -34t-134 -96.5t-82 -149t-28 -191.5t28.5 -191.5t84 -149t137.5 -96.5t189 -34q78 0 138.5 13t103 34t67.5 46.5t34 49.5l39 -6q-9 -28 -37 -58.5t-75.5 -55.5t-114.5 -41t-155 -16q-109 0 -197 33.5t-150 97.5t-95.5 158.5t-33.5 215.5
q0 122 33.5 216t94.5 158t147 97.5t191 33.5q118 0 205 -30.5t144 -85t85 -129.5t28 -164q0 -79 -14.5 -140t-46.5 -102t-83 -62t-124 -21h-28l-12 93q-11 -19 -29.5 -38t-43 -33t-55 -23t-65.5 -9q-42 0 -81 15.5t-69 46t-47.5 76t-17.5 104.5t17.5 104.5t47.5 76t69 46
t81 15.5q35 0 65.5 -9t55 -23t43 -32.5t29.5 -38.5l12 93h30l-5 -108v-248z" />
    <glyph glyph-name="A" unicode="A" horiz-adv-x="720" 
d="M275 513l-80 -212h329l-79 212l-85 231zM538 265h-356l-99 -265h-44l300 790h42l300 -790h-44z" />
    <glyph glyph-name="B" unicode="B" 
d="M140 744v-326h280q66 0 108 37t42 124q0 50 -10.5 82t-29.5 50.5t-45 25.5t-57 7h-288zM433 36q32 0 61.5 6.5t52 26t36.5 54.5t14 91q0 53 -15.5 86t-39.5 51t-53 24.5t-56 6.5h-293v-346h293zM100 0v780h300q48 0 87.5 -7.5t67.5 -29t43 -61t15 -103.5q0 -41 -10.5 -72
t-26.5 -52.5t-34.5 -33.5t-34.5 -17q25 -5 48.5 -18.5t42 -36.5t30 -56.5t11.5 -78.5q0 -68 -17.5 -110t-48 -65t-72 -31t-88.5 -8h-313z" />
    <glyph glyph-name="C" unicode="C" horiz-adv-x="750" 
d="M70 390q0 92 19 166t59.5 126t103 80t148.5 28q71 0 122 -15.5t86 -42.5t55 -64.5t29 -81.5l-42 -6q-15 82 -74.5 129t-175.5 45q-76 -1 -130.5 -26t-89.5 -71.5t-51.5 -113.5t-16.5 -153q0 -85 16.5 -152.5t51.5 -114t89.5 -71.5t130.5 -26q116 -1 175.5 45.5
t74.5 128.5l42 -6q-9 -44 -29 -81.5t-55 -64.5t-86 -42.5t-122 -15.5q-86 0 -148.5 28t-103 80t-59.5 126t-19 166z" />
    <glyph glyph-name="D" unicode="D" horiz-adv-x="780" 
d="M368 36q79 0 136 17.5t93.5 58.5t53.5 109t17 169t-17 169t-53.5 109t-93.5 58.5t-136 17.5h-228v-708h228zM710 390q0 -114 -23 -189t-68 -120t-111 -63t-151 -18h-257v780h257q85 0 151 -18t111 -63t68 -120t23 -189z" />
    <glyph glyph-name="E" unicode="E" horiz-adv-x="715" 
d="M620 780v-36h-480v-326h440v-36h-440v-346h500v-36h-540v780h520z" />
    <glyph glyph-name="F" unicode="F" horiz-adv-x="650" 
d="M140 0h-40v780h500v-36h-460v-326h420v-36h-420v-382z" />
    <glyph glyph-name="G" unicode="G" horiz-adv-x="789" 
d="M400 26q85 -2 149 17.5t105 52.5v258h-200v36h240v-312q-65 -50 -136.5 -69.5t-157.5 -18.5q-86 0 -148.5 28t-103 80t-59.5 126t-19 166t19 166t59.5 126t103 80t148.5 28q71 0 122 -15.5t86 -42.5t55 -64.5t29 -81.5l-42 -6q-15 82 -74.5 129t-175.5 45
q-76 -1 -130.5 -26t-89.5 -71.5t-51.5 -113.5t-16.5 -153q0 -85 16.5 -152.5t51.5 -114t89.5 -71.5t130.5 -26z" />
    <glyph glyph-name="H" unicode="H" horiz-adv-x="750" 
d="M650 780v-780h-40v382h-470v-382h-40v780h40v-362h470v362h40z" />
    <glyph glyph-name="I" unicode="I" horiz-adv-x="280" 
d="M160 0h-40v780h40v-780z" />
    <glyph glyph-name="J" unicode="J" horiz-adv-x="572" 
d="M487 780v-580q0 -102 -60 -156t-177 -54q-63 0 -104.5 14.5t-67 38t-36.5 53t-14 59.5l40 6q2 -28 12 -53t31 -43.5t55.5 -29t85.5 -9.5q104 2 149 48t45 125v581h41z" />
    <glyph glyph-name="K" unicode="K" 
d="M140 303l439 477h56l-328 -351l356 -429h-53l-329 401l-141 -151v-250h-40v780h40v-477z" />
    <glyph glyph-name="L" unicode="L" horiz-adv-x="605" 
d="M140 36h440v-36h-480v780h40v-744z" />
    <glyph glyph-name="M" unicode="M" horiz-adv-x="902" 
d="M205 543l-69 168l3 -251v-460h-39v780h48l230 -557l73 -181l73 181l230 557h48v-780h-39v460l3 251l-69 -168l-224 -543h-44z" />
    <glyph glyph-name="N" unicode="N" horiz-adv-x="761" 
d="M256 544l-120 188l3 -272v-460h-39v780h49l356 -544l120 -188l-3 272v460h39v-780h-49z" />
    <glyph glyph-name="O" unicode="O" horiz-adv-x="800" 
d="M400 754q-81 0 -136 -28t-89 -77.5t-48.5 -115.5t-14.5 -143q0 -76 14.5 -142.5t48.5 -116t89 -77.5t136 -28t136 28t89 77.5t48.5 116t14.5 142.5q0 77 -14.5 143t-48.5 115.5t-89 77.5t-136 28zM400 -10q-90 0 -152.5 30t-102 83t-57.5 126.5t-18 160.5t18 160.5
t57.5 126.5t102 83t152.5 30t152.5 -30t102 -83t57.5 -126.5t18 -160.5t-18 -160.5t-57.5 -126.5t-102 -83t-152.5 -30z" />
    <glyph glyph-name="P" unicode="P" horiz-adv-x="660" 
d="M140 0h-40v780h296q45 0 85 -9.5t70.5 -34t48 -67.5t17.5 -111q0 -67 -17.5 -110.5t-48 -68t-70.5 -34t-85 -9.5h-256v-336zM412 372q33 0 62.5 8.5t52.5 29.5t36.5 57t13.5 91t-13.5 91t-36.5 57t-52.5 29.5t-62.5 8.5h-272v-372h272z" />
    <glyph glyph-name="Q" unicode="Q" horiz-adv-x="800" 
d="M400 754q-81 0 -136 -28t-89 -77.5t-48.5 -115.5t-14.5 -143q0 -76 14.5 -142.5t48.5 -116t89 -77.5t136 -28t136 28t89 77.5t48.5 116t14.5 142.5q0 77 -14.5 143t-48.5 115.5t-89 77.5t-136 28zM265 13q-103 43 -149 141.5t-46 235.5q0 87 18 160.5t57.5 126.5t102 83
t152.5 30t152.5 -30t102 -83t57.5 -126.5t18 -160.5t-18 -160t-57.5 -126.5t-102 -83.5t-151.5 -30v-1l124 -47l275 -108v-44z" />
    <glyph glyph-name="R" unicode="R" horiz-adv-x="710" 
d="M140 384h294q27 0 55 6t50.5 25t37 54.5t14.5 94.5t-14.5 94.5t-37 54.5t-50.5 25t-55 6h-294v-360zM405 348h-265v-348h-40v780h321q38 0 75.5 -7.5t67.5 -30.5t48.5 -65.5t18.5 -112.5q0 -63 -15.5 -104t-40.5 -65t-57.5 -34t-66.5 -12l212 -349h-49z" />
    <glyph glyph-name="S" unicode="S" horiz-adv-x="710" 
d="M353 -10q-77 0 -129 14t-85 38.5t-49.5 59t-22.5 75.5l41 6q5 -38 19 -67t42 -49t73 -30.5t111 -10.5q41 0 84.5 8.5t79 29.5t58.5 56t23 88q0 45 -10 76t-36.5 52.5t-72 34.5t-117.5 21q-62 7 -112 17t-84.5 30.5t-53 54.5t-18.5 89q0 56 22 95.5t58 64.5t83 36t97 11
q72 0 123 -13t84 -36.5t50 -56.5t22 -74l-41 -6q-5 37 -20.5 65t-44 47t-71.5 28.5t-102 9.5q-28 0 -66 -6t-71.5 -24t-57 -51.5t-23.5 -89.5q0 -38 10 -64.5t36 -44t70.5 -28t112.5 -17.5q71 -7 123 -20.5t85.5 -38t49.5 -63.5t16 -99q0 -58 -23.5 -99.5t-63.5 -67.5
t-91.5 -38.5t-107.5 -12.5z" />
    <glyph glyph-name="T" unicode="T" horiz-adv-x="640" 
d="M340 0h-40v744h-265v36h570v-36h-265v-744z" />
    <glyph glyph-name="U" unicode="U" horiz-adv-x="784" 
d="M392 -10q-87 0 -145.5 19t-94.5 54t-51.5 85t-15.5 111v521h41v-528q0 -51 12.5 -92.5t43.5 -71t82 -45.5t128 -16t128 16t82 45.5t43.5 71t12.5 92.5v528h41v-521q0 -61 -15.5 -111t-51.5 -85t-94.5 -54t-145.5 -19z" />
    <glyph glyph-name="V" unicode="V" horiz-adv-x="720" 
d="M360 36l85 231l192 513h44l-300 -790h-42l-300 790h44l192 -513z" />
    <glyph glyph-name="W" unicode="W" horiz-adv-x="950" 
d="M495 780l156 -508l60 -201l41 208l101 501h42l-163 -790h-35l-164 534l-58 195l-58 -195l-164 -534h-35l-163 790h42l101 -501l41 -208l60 201l156 508h40z" />
    <glyph glyph-name="X" unicode="X" horiz-adv-x="710" 
d="M331 408l-68 100l-184 272h49l164 -243l63 -93l63 93l164 243h49l-184 -272l-68 -100l72 -105l206 -303h-51l-179 268l-72 105l-72 -105l-179 -268h-51l206 303z" />
    <glyph glyph-name="Y" unicode="Y" horiz-adv-x="670" 
d="M69 780l164 -262l102 -164l102 164l164 262h49l-295 -463v-317h-40v317l-295 463h49z" />
    <glyph glyph-name="Z" unicode="Z" horiz-adv-x="710" 
d="M200 155l-94 -121l199 1h345v-35h-595v26l458 599l94 121l-199 -1h-325v35h575v-26z" />
    <glyph glyph-name="bracketleft" unicode="[" horiz-adv-x="240" 
d="M140 -94h90v-36h-130v960h130v-36h-90v-888z" />
    <glyph glyph-name="backslash" unicode="\" horiz-adv-x="300" 
d="M15 870h40l230 -960h-40z" />
    <glyph glyph-name="bracketright" unicode="]" horiz-adv-x="240" 
d="M100 794h-90v36h130v-960h-130v36h90v888z" />
    <glyph glyph-name="asciicircum" unicode="^" horiz-adv-x="470" 
d="M151 591l-100 -191h-37l205 390h32l205 -390h-37l-100 191l-84 165z" />
    <glyph glyph-name="underscore" unicode="_" horiz-adv-x="300" 
d="M20 -200v34h260v-34h-260z" />
    <glyph glyph-name="grave" unicode="`" horiz-adv-x="600" 
d="M224 800l94 -208h-35l-106 208h47z" />
    <glyph glyph-name="a" unicode="a" horiz-adv-x="561" 
d="M103 138q0 -55 33.5 -84t96.5 -29q45 0 80 10.5t60.5 29t43 42.5t27.5 51v137l-197 -31q-30 -5 -56.5 -13t-46 -22t-30.5 -36t-11 -55zM62 138q0 39 13.5 66.5t38.5 46.5t60 30.5t78 17.5l192 29v42q0 77 -42.5 106.5t-120.5 30.5q-72 2 -107 -25t-45 -76l-40 5
q6 28 19.5 51.5t36.5 41t56.5 27t79.5 9.5q97 0 149 -43t52 -131v-258l5 -108h-30l-13 100q-16 -30 -40 -50.5t-52.5 -34t-59 -19.5t-59.5 -6q-43 0 -75 11t-53.5 30.5t-32 47t-10.5 59.5z" />
    <glyph glyph-name="b" unicode="b" horiz-adv-x="590" 
d="M117 158q8 -20 22 -43t36.5 -43t55 -33.5t76.5 -13.5q42 0 76 17t57 48.5t35.5 75.5t12.5 99t-12.5 99t-35.5 75.5t-57 48.5t-76 17q-44 0 -76.5 -13.5t-55 -33.5t-36.5 -43t-22 -43v-214zM117 430q14 27 35.5 47.5t47 34.5t54 21t55.5 7q52 0 93 -20t69.5 -56
t43.5 -86.5t15 -112.5t-15 -112.5t-43.5 -86.5t-69.5 -56t-93 -20q-27 0 -55.5 7t-54 21t-47 34.5t-35.5 47.5l-13 -100h-30l5 108v692h38v-370z" />
    <glyph glyph-name="c" unicode="c" horiz-adv-x="562" 
d="M60 265q0 62 17 112.5t48 86.5t74.5 56t96.5 20q94 0 145.5 -37.5t63.5 -99.5l-42 -6q-11 51 -51.5 79.5t-115.5 28.5q-42 0 -78 -17t-61.5 -48.5t-40 -75.5t-14.5 -99t14.5 -99t40 -75.5t61.5 -48.5t78 -17q75 0 115.5 28.5t51.5 79.5l42 -6q-12 -62 -63.5 -99.5
t-145.5 -37.5q-53 0 -96.5 20t-74.5 56t-48 86.5t-17 112.5z" />
    <glyph glyph-name="d" unicode="d" horiz-adv-x="590" 
d="M473 372q-7 20 -21.5 43t-37 43t-55 33.5t-76.5 13.5q-42 0 -76 -17t-57 -48.5t-35.5 -75.5t-12.5 -99t12.5 -99t35.5 -75.5t57 -48.5t76 -17q44 0 76.5 13.5t55 33.5t37 43t21.5 43v214zM473 800h38v-692l5 -108h-30l-13 100q-14 -27 -35.5 -47.5t-47 -34.5t-54 -21
t-55.5 -7q-52 0 -93 20t-69.5 56t-43.5 86.5t-15 112.5t15 112.5t43.5 86.5t69.5 56t93 20q27 0 55.5 -7t54 -21t47 -34.5t35.5 -47.5v370z" />
    <glyph glyph-name="e" unicode="e" horiz-adv-x="579" 
d="M296 505q-40 0 -74.5 -15.5t-60.5 -44t-41.5 -69.5t-18.5 -91h370q-1 51 -10 91.5t-29.5 69t-53.5 44t-82 15.5zM101 251q2 -52 17 -93.5t41 -71t61 -45.5t76 -16q75 0 115.5 28.5t51.5 79.5l42 -6q-12 -62 -63.5 -99.5t-145.5 -37.5q-53 0 -96.5 20t-74.5 56t-48 86.5
t-17 112.5t17 112.5t48 86.5t74.5 56t96.5 20q61 0 103 -19.5t67.5 -55.5t36.5 -86.5t11 -112.5v-15h-413z" />
    <glyph glyph-name="f" unicode="f" horiz-adv-x="370" 
d="M309 774q-30 0 -53.5 -5.5t-40 -21t-25.5 -44t-9 -74.5v-99h153v-34h-153v-496h-38v496h-106v34h106v72q0 41 4 79t20.5 66.5t50 45.5t91.5 17q17 0 32.5 -2.5t24.5 -6.5l-8 -36q-5 2 -18 5.5t-31 3.5z" />
    <glyph glyph-name="g" unicode="g" horiz-adv-x="590" 
d="M473 372q-7 20 -22 43t-38 43t-56 33.5t-77 13.5q-85 0 -133 -60t-48 -170t48 -170t133 -60q44 0 77 12.5t56 31.5t38 41.5t22 42.5v199zM511 -30q0 -88 -61.5 -134t-168.5 -46q-55 0 -91.5 12t-59.5 31.5t-35.5 44.5t-18.5 51l40 5q5 -25 16.5 -45.5t31 -35.5t48.5 -23
t69 -8t75 8t61 25t41 44t15 66v150q-14 -27 -36 -46.5t-48 -32.5t-55 -19.5t-56 -6.5q-52 0 -93 18t-69.5 52.5t-43.5 83.5t-15 111t15 111t43.5 83.5t69.5 52.5t93 18q27 0 56 -7t55 -21t48 -34.5t36 -47.5l13 100h30l-5 -108v-452z" />
    <glyph glyph-name="h" unicode="h" horiz-adv-x="566" 
d="M118 430q25 48 77.5 79t117.5 31q38 0 71.5 -10.5t58 -30.5t38.5 -49t14 -66v-384h-38v369q0 66 -42.5 101t-111.5 35q-39 0 -70 -13.5t-54 -33t-38 -42.5t-23 -43v-373h-38v800h38v-370z" />
    <glyph glyph-name="i" unicode="i" horiz-adv-x="236" 
d="M148 683h-60v60h60v-60zM99 530h38v-530h-38v530z" />
    <glyph glyph-name="j" unicode="j" horiz-adv-x="236" 
d="M148 683h-60v60h60v-60zM-29 -174q30 0 54 5.5t40.5 21t25 44t8.5 74.5v559h38v-532q0 -41 -4 -79t-20.5 -66.5t-49.5 -45.5t-92 -17q-17 0 -32.5 2.5t-24.5 6.5l8 36q5 -2 18 -5.5t31 -3.5z" />
    <glyph glyph-name="k" unicode="k" horiz-adv-x="531" 
d="M80 0v800h38v-568l124 125l173 173h55l-229 -224l267 -306h-51l-242 282l-97 -96v-186h-38z" />
    <glyph glyph-name="l" unicode="l" horiz-adv-x="242" 
d="M102 800h38v-800h-38v800z" />
    <glyph glyph-name="m" unicode="m" horiz-adv-x="874" 
d="M117 430q12 24 31.5 44t43 34.5t51 23t55.5 8.5q62 0 103.5 -30t53.5 -85q32 58 82.5 86.5t103.5 28.5q35 0 64.5 -10.5t51 -30.5t34 -49t12.5 -66v-384h-38v369q0 66 -36.5 101t-97.5 35q-36 0 -64 -13.5t-49.5 -33t-35.5 -42.5t-22 -43v-373h-38v369q0 66 -34.5 101
t-99.5 35q-36 0 -64 -13.5t-49.5 -33t-35.5 -42.5t-22 -43v-373h-38v422l-5 108h30z" />
    <glyph glyph-name="n" unicode="n" horiz-adv-x="565" 
d="M117 430q25 48 77.5 79t117.5 31q38 0 71.5 -10.5t58 -30.5t38.5 -49t14 -66v-384h-38v369q0 66 -42.5 101t-111.5 35q-39 0 -70 -13.5t-54 -33t-38 -42.5t-23 -43v-373h-38v422l-5 108h30z" />
    <glyph glyph-name="o" unicode="o" horiz-adv-x="592" 
d="M296 -10q-113 0 -174.5 72.5t-61.5 202.5t61.5 202.5t174.5 72.5t174.5 -72.5t61.5 -202.5t-61.5 -202.5t-174.5 -72.5zM296 505q-94 0 -144 -62.5t-50 -177.5t50 -177.5t144 -62.5t144 62.5t50 177.5t-50 177.5t-144 62.5z" />
    <glyph glyph-name="p" unicode="p" horiz-adv-x="590" 
d="M117 158q8 -20 22 -43t36.5 -43t55 -33.5t76.5 -13.5q42 0 76 17t57 48.5t35.5 75.5t12.5 99t-12.5 99t-35.5 75.5t-57 48.5t-76 17q-44 0 -76.5 -13.5t-55 -33.5t-36.5 -43t-22 -43v-214zM117 -200h-38v622l-5 108h30l13 -100q14 27 35.5 47.5t47 34.5t54 21t55.5 7
q52 0 93 -20t69.5 -56t43.5 -86.5t15 -112.5t-15 -112.5t-43.5 -86.5t-69.5 -56t-93 -20q-27 0 -55.5 7t-54 21t-47 34.5t-35.5 47.5v-300z" />
    <glyph glyph-name="q" unicode="q" horiz-adv-x="591" 
d="M473 372q-7 20 -21.5 43t-37 43t-55 33.5t-76.5 13.5q-42 0 -76 -17t-57 -48.5t-35.5 -75.5t-12.5 -99t12.5 -99t35.5 -75.5t57 -48.5t76 -17q44 0 76.5 13.5t55 33.5t37 43t21.5 43v214zM473 100q-14 -27 -35.5 -47.5t-47 -34.5t-54 -21t-55.5 -7q-52 0 -93 20t-69.5 56
t-43.5 86.5t-15 112.5t15 112.5t43.5 86.5t69.5 56t93 20q27 0 55.5 -7t54 -21t47 -34.5t35.5 -47.5l13 100h30l-5 -108v-622h-38v300z" />
    <glyph glyph-name="r" unicode="r" horiz-adv-x="375" 
d="M307 540q11 0 22.5 -1t21.5 -3l-5 -40q-8 2 -18 3.5t-21 1.5q-44 0 -78.5 -15.5t-59 -39.5t-38 -53t-14.5 -56v-337h-38v422l-5 108h30l14 -110q13 29 33.5 51t46 37.5t54 23.5t55.5 8z" />
    <glyph glyph-name="s" unicode="s" horiz-adv-x="534" 
d="M264 505q-25 0 -52.5 -6t-50.5 -20t-37.5 -36t-14.5 -55q0 -28 10 -45t30 -26.5t52 -14t75 -9.5q36 -4 73.5 -10.5t67.5 -21.5t49 -41t19 -70q0 -42 -17.5 -72.5t-47.5 -50t-71 -28.5t-88 -9q-94 0 -145.5 37.5t-63.5 99.5l42 6q11 -51 51 -79.5t115 -28.5q38 0 71 6.5
t58 21.5t39.5 38.5t14.5 57.5t-14 53.5t-39 31t-59.5 16.5t-74.5 9q-32 3 -65.5 8.5t-60.5 19t-44 37t-17 63.5q0 41 16 69.5t43 47.5t62.5 27.5t74.5 8.5q94 0 145.5 -37.5t63.5 -99.5l-42 -6q-11 51 -52 79.5t-116 28.5z" />
    <glyph glyph-name="t" unicode="t" horiz-adv-x="400" 
d="M304 26q18 0 31 3.5t18 5.5l8 -36q-9 -4 -24.5 -6.5t-32.5 -2.5q-58 0 -91.5 17t-50 45.5t-20.5 66.5t-4 79v298h-106v34h106v140l38 13v-153h173v-34h-173v-325q0 -46 9 -74t25.5 -44t40 -21.5t53.5 -5.5z" />
    <glyph glyph-name="u" unicode="u" horiz-adv-x="565" 
d="M448 100q-25 -48 -77.5 -79t-117.5 -31q-38 0 -71.5 10.5t-58 30.5t-38.5 49t-14 66v384h38v-369q0 -66 42.5 -101t111.5 -35q39 0 70 13.5t54 33t38.5 43t22.5 42.5v373h38v-422l5 -108h-30z" />
    <glyph glyph-name="v" unicode="v" horiz-adv-x="520" 
d="M281 -10h-42l-207 540h45l113 -305l70 -193l70 193l114 305h44z" />
    <glyph glyph-name="w" unicode="w" horiz-adv-x="776" 
d="M365 530h46l116 -331l52 -156l33 159v-1l71 329h41l-121 -540h-43l-123 352l-49 148l-49 -148l-123 -352h-43l-121 540h41l71 -329v1l33 -159l52 156z" />
    <glyph glyph-name="x" unicode="x" horiz-adv-x="518" 
d="M259 246l-79 -109l-98 -137h-49l155 212l47 63l-48 64l-141 191h48l85 -118l80 -113l80 113l85 118h48l-141 -191l-48 -64l47 -63l155 -212h-49l-98 137z" />
    <glyph glyph-name="y" unicode="y" horiz-adv-x="512" 
d="M287 47l-99 -247h-43l91 220l-208 510h45l113 -284l70 -183l70 183l114 284h44z" />
    <glyph glyph-name="z" unicode="z" horiz-adv-x="532" 
d="M55 30l263 339l100 128l-165 -1h-179v34h391v-30l-263 -339l-100 -128l165 1h209v-34h-421v30z" />
    <glyph glyph-name="braceleft" unicode="{" horiz-adv-x="280" 
d="M90 350q15 -7 24.5 -20t15.5 -29t8.5 -33.5t2.5 -34.5v-227q0 -31 7.5 -50.5t20 -30.5t29 -15t35.5 -4h37v-36h-27q-47 0 -75 12.5t-43 32.5t-19.5 45.5t-4.5 51.5v222q0 31 -4.5 50t-13.5 29.5t-23 14.5t-33 4h-19v36h19q19 0 33 4t23 14.5t13.5 29.5t4.5 50v222
q0 26 4.5 51.5t19.5 45.5t43 32.5t75 12.5h27v-36h-37q-19 0 -35.5 -4t-29 -15t-20 -30.5t-7.5 -50.5v-227q0 -16 -2.5 -34t-8.5 -34t-15.5 -29t-24.5 -20z" />
    <glyph glyph-name="bar" unicode="|" horiz-adv-x="250" 
d="M145 -130h-40v960h40v-960z" />
    <glyph glyph-name="braceright" unicode="}" horiz-adv-x="280" 
d="M190 350q-15 7 -24.5 20t-15.5 29t-8.5 34t-2.5 34v227q0 31 -7.5 50.5t-20 30.5t-29 15t-35.5 4h-37v36h27q47 0 75 -12.5t43 -32.5t19.5 -45.5t4.5 -51.5v-222q0 -31 4.5 -50t13.5 -29.5t23 -14.5t33 -4h19v-36h-19q-19 0 -33 -4t-23 -14.5t-13.5 -29.5t-4.5 -50v-222
q0 -26 -4.5 -51.5t-19.5 -45.5t-43 -32.5t-75 -12.5h-27v36h37q19 0 35.5 4t29 15t20 30.5t7.5 50.5v227q0 17 2.5 34.5t8.5 33.5t15.5 29t24.5 20z" />
    <glyph glyph-name="asciitilde" unicode="~" horiz-adv-x="470" 
d="M404 316q-8 9 -19 17q-10 7 -23.5 12t-31.5 5q-28 0 -49 -10.5t-41.5 -23t-44 -23t-55.5 -10.5q-23 0 -40 6t-28.5 14t-18 15t-8.5 10l21 26q8 -9 19 -17q10 -7 24 -12t31 -5q28 0 49 10.5t41.5 23t44 23t55.5 10.5q23 0 40 -6t28.5 -14t18 -15t8.5 -10z" />
    <glyph glyph-name="Zcaron" horiz-adv-x="710" 
d="M223 1030l137 -175l137 175h38l-153 -208h-44l-153 208h38zM200 155l-94 -121l199 1h345v-35h-595v26l458 599l94 121l-199 -1h-325v35h575v-26z" />
    <glyph glyph-name="zcaron" horiz-adv-x="532" 
d="M129 800l137 -175l137 175h38l-153 -208h-44l-153 208h38zM55 30l263 339l100 128l-165 -1h-179v34h391v-30l-263 -339l-100 -128l165 1h209v-34h-421v30z" />
    <glyph glyph-name="exclamdown" unicode="&#xa1;" horiz-adv-x="200" 
d="M126 478h-52v52h52v-52zM72 -200l18 540h20l18 -540h-56z" />
    <glyph glyph-name="cent" unicode="&#xa2;" horiz-adv-x="550" 
d="M102 382q0 -78 28 -134t76 -83l115 456q-6 0 -12 0.5t-13 0.5q-42 0 -78 -17t-61.5 -48.5t-40 -75.5t-14.5 -99zM365 650q61 -13 95.5 -47t44.5 -83l-42 -6q-8 39 -34 65t-72 37l-117 -466q27 -8 56 -8q75 0 115.5 28.5t51.5 79.5l42 -6q-12 -62 -63.5 -99.5
t-145.5 -37.5q-33 0 -65 8l-29 -115h-37l32 128q-64 29 -100.5 95t-36.5 159q0 62 17 112.5t48 86.5t74.5 56t96.5 20q8 0 16.5 -0.5t16.5 -1.5l28 109h37z" />
    <glyph glyph-name="sterling" unicode="&#xa3;" horiz-adv-x="680" 
d="M164 564q0 102 60 156t177 54q63 0 104.5 -14.5t67 -38t36.5 -53t14 -59.5l-39 -6q-2 28 -12 53t-31.5 44t-56 29.5t-85.5 9.5q-104 -2 -150 -48.5t-46 -125.5v-148h256v-35h-256v-347h417v-35h-556v35h100v347h-100v35h100v147z" />
    <glyph glyph-name="currency" unicode="&#xa4;" horiz-adv-x="720" 
d="M360 90q-120 0 -200 68l-96 -96l-24 24l96 96q-33 37 -51 87t-18 113t18 113t51 87l-96 96l24 24l96 -97q80 69 200 69q59 0 110 -17.5t90 -50.5l96 96l24 -24l-96 -96q32 -37 50.5 -87t18.5 -113t-18.5 -113t-50.5 -87l96 -96l-24 -24l-97 96q-38 -33 -89 -50.5
t-110 -17.5zM360 126q57 0 104 17t81 50t53 80.5t19 108.5t-19 108.5t-53 80.5t-81 50t-104 17t-104 -17t-81 -50t-53 -80.5t-19 -108.5t19 -108.5t53 -80.5t81 -50t104 -17z" />
    <glyph glyph-name="yen" unicode="&#xa5;" horiz-adv-x="680" 
d="M360 187v-187h-40v187h-216v34h216v89h-216v34h198l-287 436h48l171 -262l106 -163l106 163l171 262h48l-287 -436h198v-34h-216v-89h216v-34h-216z" />
    <glyph glyph-name="brokenbar" unicode="&#xa6;" horiz-adv-x="250" 
d="M145 370h-40v460h40v-460zM145 -130h-40v460h40v-460z" />
    <glyph glyph-name="section" unicode="&#xa7;" horiz-adv-x="620" 
d="M59 280q0 36 12 65.5t33 52t49 38.5t60 25v1q-29 7 -54 18t-43 28t-28 42t-10 60q0 49 19 83.5t51.5 56t74 31t86.5 9.5q60 0 104 -11.5t74 -32.5t46.5 -50.5t22.5 -65.5l-42 -6q-10 63 -58.5 96.5t-147.5 33.5q-27 0 -60 -5.5t-61.5 -21.5t-48 -44t-19.5 -73
q0 -34 10 -56t33.5 -36.5t62 -23.5t95.5 -15q44 -4 87 -11.5t77 -25.5t55.5 -51.5t21.5 -90.5q0 -36 -12 -65.5t-33 -52t-49 -38.5t-60 -25v-1q29 -7 54 -18t43 -28t28 -42t10 -60q0 -49 -19 -83.5t-51.5 -56t-74 -31t-86.5 -9.5q-60 0 -104 11.5t-74 32.5t-46.5 50.5
t-22.5 65.5l42 6q11 -63 59 -96.5t147 -33.5q27 0 60 5.5t61.5 21.5t48 44t19.5 73q0 34 -10 56t-33.5 36.5t-62 23.5t-95.5 15q-43 5 -86.5 12t-77.5 25t-55.5 51.5t-21.5 90.5zM99 279q0 -43 18 -70t46.5 -42t65.5 -20.5t74 -5.5q39 0 78 8.5t70 27t50.5 49t19.5 75.5
q0 43 -18 70t-46.5 42t-65 20.5t-74.5 5.5q-39 0 -78 -8.5t-70 -27t-50.5 -49t-19.5 -75.5z" />
    <glyph glyph-name="dieresis" unicode="&#xa8;" horiz-adv-x="600" 
d="M426 683h-60v60h60v-60zM235 683h-60v60h60v-60z" />
    <glyph glyph-name="copyright" unicode="&#xa9;" horiz-adv-x="900" 
d="M261 390q0 -103 51 -153.5t132 -52.5q75 -2 119 30.5t55 89.5l43 -5q-14 -68 -65.5 -111t-146.5 -43q-51 0 -93.5 15.5t-73 46.5t-47.5 77t-17 106t17 106t47.5 77t73 46.5t93.5 15.5q95 0 146.5 -43t65.5 -111l-43 -5q-11 57 -55 89.5t-119 30.5q-81 -2 -132 -52.5
t-51 -153.5zM86 390q0 -75 29 -141t78.5 -115.5t115.5 -78.5t141 -29t141.5 29t116 78.5t78 115.5t28.5 141t-28.5 141.5t-78 116t-116 78t-141.5 28.5t-141 -28.5t-115.5 -78t-78.5 -116t-29 -141.5zM50 390q0 83 31.5 156t85.5 127t127 85.5t156 31.5t156 -31.5t127 -85.5
t85.5 -127t31.5 -156t-31.5 -156t-85.5 -127t-127 -85.5t-156 -31.5t-156 31.5t-127 85.5t-85.5 127t-31.5 156z" />
    <glyph glyph-name="ordfeminine" unicode="&#xaa;" horiz-adv-x="460" 
d="M93 493q0 -81 98 -80q32 0 60 11t50 28t35 37t15 39v70l-148 -20q-21 -3 -40.5 -8t-35 -14t-25 -24t-9.5 -39zM55 492q0 30 10.5 50.5t30 34t47.5 21t62 12.5l146 19v26q0 51 -31 77t-89 26q-61 0 -87.5 -25.5t-33.5 -64.5l-38 7q5 26 15.5 47t29 36t46 23.5t66.5 8.5
q78 0 119 -34.5t41 -105.5v-136l6 -124h-31l-10 70q-9 -16 -27 -30.5t-40.5 -25.5t-47 -17.5t-48.5 -6.5q-69 0 -102.5 29t-33.5 83z" />
    <glyph glyph-name="guillemotleft" unicode="&#xab;" horiz-adv-x="508" 
d="M458 397l-167 -132l167 -132v-43l-208 151v48l208 151v-43zM250 397l-167 -132l167 -132v-43l-208 151v48l208 151v-43z" />
    <glyph glyph-name="logicalnot" unicode="&#xac;" horiz-adv-x="490" 
d="M406 496h-356v34h390v-280h-34v246z" />
    <glyph glyph-name="registered" unicode="&#xae;" horiz-adv-x="900" 
d="M306 379h175q14 0 31 3t32.5 14t26 32t10.5 56t-10.5 56t-26 32t-32.5 14t-31 3h-175v-210zM306 155h-37v470h197q30 0 57.5 -6t49 -21.5t34.5 -43t13 -70.5q0 -34 -8.5 -58t-22.5 -40t-33.5 -25.5t-41.5 -13.5l111 -192h-47l-106 188h-166v-188zM86 390q0 -75 29 -141
t78.5 -115.5t115.5 -78.5t141 -29t141.5 29t116 78.5t78 115.5t28.5 141t-28.5 141.5t-78 116t-116 78t-141.5 28.5t-141 -28.5t-115.5 -78t-78.5 -116t-29 -141.5zM50 390q0 83 31.5 156t85.5 127t127 85.5t156 31.5t156 -31.5t127 -85.5t85.5 -127t31.5 -156t-31.5 -156
t-85.5 -127t-127 -85.5t-156 -31.5t-156 31.5t-127 85.5t-85.5 127t-31.5 156z" />
    <glyph glyph-name="macron" unicode="&#xaf;" horiz-adv-x="600" 
d="M164 729h272v-32h-272v32z" />
    <glyph glyph-name="degree" unicode="&#xb0;" horiz-adv-x="490" 
d="M245 414q-40 0 -75 11t-60 33.5t-39.5 56t-14.5 79.5t14.5 79.5t39.5 56t60 33.5t75 11q41 0 75.5 -11t59.5 -33.5t39.5 -56t14.5 -79.5t-14.5 -79.5t-39.5 -56t-59.5 -33.5t-75.5 -11zM245 448q70 0 110.5 35.5t40.5 110.5t-40.5 110.5t-110.5 35.5t-110.5 -35.5
t-40.5 -110.5t40.5 -110.5t110.5 -35.5z" />
    <glyph glyph-name="plusminus" unicode="&#xb1;" horiz-adv-x="490" 
d="M228 453h-178v34h178v178h34v-178h178v-34h-178v-178h-34v178zM50 173v34h390v-34h-390z" />
    <glyph glyph-name="uni00B2" unicode="&#xb2;" horiz-adv-x="424" 
d="M61 370q0 45 11 75t30.5 50.5t47 35t60.5 29.5q29 13 49 22t33.5 18.5t19.5 23t6 34.5q0 26 -11 42t-27 25t-34 12t-31 3q-54 0 -80 -17.5t-34 -55.5l-36 4q8 44 41.5 73.5t108.5 29.5q28 0 53 -7t44 -21.5t30 -36.5t11 -51q0 -30 -11.5 -49.5t-30 -33t-42 -23.5
t-47.5 -21q-61 -27 -91 -54t-32 -74l120 1h145v-34h-303z" />
    <glyph glyph-name="uni00B3" unicode="&#xb3;" horiz-adv-x="421" 
d="M361 475q0 -48 -38.5 -81.5t-120.5 -33.5q-36 0 -62 8t-43.5 21.5t-27.5 33t-14 41.5l37 3q6 -38 32 -56t78 -19q58 -1 90.5 19t32.5 64q0 29 -11 45t-28 24t-38 10t-41 2h-54v34h54q21 0 40 2t33 10t22.5 23t8.5 42q0 41 -29.5 58t-76.5 16q-52 -1 -76.5 -18.5
t-30.5 -55.5l-36 4q4 22 13 41t26 32.5t42.5 21.5t61.5 8q29 0 54.5 -6t45 -19t31 -33t11.5 -49q0 -45 -22.5 -66.5t-51.5 -25.5q14 -1 29.5 -7.5t28.5 -18.5t21.5 -30.5t8.5 -43.5z" />
    <glyph glyph-name="acute" unicode="&#xb4;" horiz-adv-x="600" 
d="M423 800l-106 -208h-35l94 208h47z" />
    <glyph glyph-name="mu" unicode="&#xb5;" horiz-adv-x="565" 
d="M71 530h38v-369q0 -66 42.5 -101t111.5 -35q39 0 70 13.5t54 33t38.5 43t22.5 42.5v373h38v-422l5 -108h-30l-13 100q-25 -48 -77.5 -79t-117.5 -31q-46 0 -86.5 16t-60.5 45l3 -91v-160h-38v730z" />
    <glyph glyph-name="paragraph" unicode="&#xb6;" horiz-adv-x="665" 
d="M526 745h-102v-745h-39v336h-116q-45 0 -85 9.5t-70.5 34t-48 68t-17.5 110.5q0 68 17.5 111t48 67.5t70.5 34t85 9.5h296v-780h-39v745z" />
    <glyph glyph-name="periodcentered" unicode="&#xb7;" horiz-adv-x="200" 
d="M130 305h-60v60h60v-60z" />
    <glyph glyph-name="periodcentered" unicode="&#x2219;" horiz-adv-x="200" 
d="M130 305h-60v60h60v-60z" />
    <glyph glyph-name="cedilla" unicode="&#xb8;" horiz-adv-x="600" 
d="M306 12l-15 -54q51 -8 79.5 -28t28.5 -58q0 -44 -31.5 -63t-77.5 -19q-23 0 -45.5 5.5t-33.5 11.5l10 29q8 -4 18 -8q8 -3 19 -5.5t24 -2.5q35 -1 58.5 9t23.5 42q0 19 -11 30t-27.5 17t-35.5 9t-36 5l27 80h25z" />
    <glyph glyph-name="uni00B9" unicode="&#xb9;" horiz-adv-x="280" 
d="M134 370v348q-19 -21 -45 -34t-49 -21v37q17 7 30.5 14t24.5 15.5t21.5 19t22.5 25.5h31v-404h-36z" />
    <glyph glyph-name="ordmasculine" unicode="&#xba;" horiz-adv-x="480" 
d="M240 756q-64 0 -102 -40.5t-38 -130.5t38 -130.5t102 -40.5q65 0 102.5 40.5t37.5 130.5t-37.5 130.5t-102.5 40.5zM240 380q-82 0 -130 51t-48 154t48 154t130 51q83 0 130.5 -51t47.5 -154t-47.5 -154t-130.5 -51z" />
    <glyph glyph-name="guillemotright" unicode="&#xbb;" horiz-adv-x="508" 
d="M50 133l167 132l-167 132v43l208 -151v-48l-208 -151v43zM258 133l167 132l-167 132v43l208 -151v-48l-208 -151v43z" />
    <glyph glyph-name="uni00BC" unicode="&#xbc;" horiz-adv-x="802" 
d="M644 291l1 60l-36 -58l-77 -113l-37 -54h149v165zM134 370v348q-19 -21 -45 -34t-49 -21v37q17 7 30.5 14t24.5 15.5t21.5 19t22.5 25.5h31v-404h-36zM148 0h-42l506 764h42zM679 92v-92h-35v92h-189v29l189 283h35v-278h78v-34h-78z" />
    <glyph glyph-name="uni00BD" unicode="&#xbd;" horiz-adv-x="870" 
d="M507 0q0 45 11 75t30.5 50.5t47 35t60.5 29.5q29 13 49 22t33.5 18.5t19.5 23t6 34.5q0 26 -11 42t-27 25t-34 12t-31 3q-54 0 -80 -17.5t-34 -55.5l-36 4q8 44 41.5 73.5t108.5 29.5q28 0 53 -7t44 -21.5t30 -36.5t11 -51q0 -30 -11.5 -49.5t-30 -33t-42 -23.5
t-47.5 -21q-61 -27 -91 -54t-32 -74l120 1h145v-34h-303zM148 0h-42l506 764h42zM134 370v348q-19 -21 -45 -34t-49 -21v37q17 7 30.5 14t24.5 15.5t21.5 19t22.5 25.5h31v-404h-36z" />
    <glyph glyph-name="uni00BE" unicode="&#xbe;" horiz-adv-x="932" 
d="M774 291l1 60l-36 -58l-77 -113l-37 -54h149v165zM278 0h-42l506 764h42zM361 475q0 -48 -38.5 -81.5t-120.5 -33.5q-36 0 -62 8t-43.5 21.5t-27.5 33t-14 41.5l37 3q6 -38 32 -56t78 -19q58 -1 90.5 19t32.5 64q0 29 -11 45t-28 24t-38 10t-41 2h-54v34h54q21 0 40 2
t33 10t22.5 23t8.5 42q0 41 -29.5 58t-76.5 16q-52 -1 -76.5 -18.5t-30.5 -55.5l-36 4q4 22 13 41t26 32.5t42.5 21.5t61.5 8q29 0 54.5 -6t45 -19t31 -33t11.5 -49q0 -45 -22.5 -66.5t-51.5 -25.5q14 -1 29.5 -7.5t28.5 -18.5t21.5 -30.5t8.5 -43.5zM809 92v-92h-35v92
h-189v29l189 283h35v-278h78v-34h-78z" />
    <glyph glyph-name="questiondown" unicode="&#xbf;" horiz-adv-x="540" 
d="M268 530h52v-52h-52v52zM312 340q19 -53 18 -88.5t-14.5 -59.5t-36.5 -38t-47 -24q-28 -11 -53.5 -22.5t-45 -28.5t-31.5 -42.5t-12 -64.5q0 -44 14 -72t38.5 -45t59 -23.5t74.5 -6.5q52 0 89 11.5t61.5 32.5t38 51t18.5 68l38 -4q-5 -42 -20.5 -78t-45 -61.5t-73.5 -40
t-106 -14.5q-52 0 -94 10t-71 31.5t-45 56t-16 83.5q0 48 16.5 79t41.5 51.5t53 33t52 22.5q29 12 48.5 24.5t28.5 32t8 49t-12 77.5h26z" />
    <glyph glyph-name="Agrave" unicode="&#xc0;" horiz-adv-x="740" 
d="M292 1030l94 -208h-35l-106 208h47zM285 513l-80 -212h329l-79 212l-85 231zM548 265h-356l-99 -265h-44l300 790h42l300 -790h-44z" />
    <glyph glyph-name="Aacute" unicode="&#xc1;" horiz-adv-x="740" 
d="M495 1030l-106 -208h-35l94 208h47zM285 513l-80 -212h329l-79 212l-85 231zM548 265h-356l-99 -265h-44l300 790h42l300 -790h-44z" />
    <glyph glyph-name="Acircumflex" unicode="&#xc2;" horiz-adv-x="740" 
d="M507 822l-137 175l-137 -175h-38l153 208h44l153 -208h-38zM285 513l-80 -212h329l-79 212l-85 231zM548 265h-356l-99 -265h-44l300 790h42l300 -790h-44z" />
    <glyph glyph-name="Atilde" unicode="&#xc3;" horiz-adv-x="740" 
d="M555 965q-5 -42 -35.5 -66.5t-70.5 -22.5q-28 1 -48.5 12t-38 23.5t-35.5 24t-41 12.5q-29 2 -50.5 -13.5t-26.5 -49.5l-28 5q5 42 35.5 66.5t70.5 22.5q29 -1 49 -12t37.5 -23.5t35.5 -23.5t41 -13q29 -2 50.5 13.5t26.5 49.5zM285 513l-80 -212h329l-79 212l-85 231z
M548 265h-356l-99 -265h-44l300 790h42l300 -790h-44z" />
    <glyph glyph-name="Adieresis" unicode="&#xc4;" horiz-adv-x="740" 
d="M496 913h-60v60h60v-60zM305 913h-60v60h60v-60zM285 513l-80 -212h329l-79 212l-85 231zM548 265h-356l-99 -265h-44l300 790h42l300 -790h-44z" />
    <glyph glyph-name="Aring" unicode="&#xc5;" horiz-adv-x="740" 
d="M453 926q0 40 -21 63t-62 23t-62 -23t-21 -63t21 -63t62 -23t62 23t21 63zM256 926q0 50 30 82t84 32t84 -32t30 -82t-30 -82t-84 -32t-84 32t-30 82zM285 513l-80 -212h329l-79 212l-85 231zM548 265h-356l-99 -265h-44l300 790h42l300 -790h-44z" />
    <glyph glyph-name="AE" unicode="&#xc6;" horiz-adv-x="1075" 
d="M297 418h226l-30 155l-30 161zM530 382h-252l-201 -382h-45l415 780h533v-36h-480l63 -326h377v-36h-370l67 -346h363v-36h-396z" />
    <glyph glyph-name="Ccedilla" unicode="&#xc7;" horiz-adv-x="750" 
d="M70 390q0 92 19 166t59.5 126t103 80t148.5 28q71 0 122 -15.5t86 -42.5t55 -64.5t29 -81.5l-42 -6q-15 82 -74.5 129t-175.5 45q-76 -1 -130.5 -26t-89.5 -71.5t-51.5 -113.5t-16.5 -153q0 -85 16.5 -152.5t51.5 -114t89.5 -71.5t130.5 -26q116 -1 175.5 45.5
t74.5 128.5l42 -6q-9 -44 -29 -81.5t-55 -64.5t-86 -42.5t-122 -15.5l-9 -32q51 -8 79.5 -28t28.5 -58q0 -44 -31.5 -63t-77.5 -19q-23 0 -45.5 5.5t-33.5 11.5l10 29q8 -4 18 -8q8 -3 19 -5.5t24 -2.5q35 -1 58.5 9t23.5 42q0 19 -11 30t-27.5 17t-35.5 9t-36 5l20 59
q-79 4 -136.5 33.5t-95 81.5t-55 124t-17.5 160z" />
    <glyph glyph-name="Egrave" unicode="&#xc8;" horiz-adv-x="715" 
d="M294 1030l94 -208h-35l-106 208h47zM620 780v-36h-480v-326h440v-36h-440v-346h500v-36h-540v780h520z" />
    <glyph glyph-name="Eacute" unicode="&#xc9;" horiz-adv-x="715" 
d="M493 1030l-106 -208h-35l94 208h47zM620 780v-36h-480v-326h440v-36h-440v-346h500v-36h-540v780h520z" />
    <glyph glyph-name="Ecircumflex" unicode="&#xca;" horiz-adv-x="715" 
d="M507 822l-137 175l-137 -175h-38l153 208h44l153 -208h-38zM620 780v-36h-480v-326h440v-36h-440v-346h500v-36h-540v780h520z" />
    <glyph glyph-name="Edieresis" unicode="&#xcb;" horiz-adv-x="715" 
d="M305 913h-60v60h60v-60zM496 913h-60v60h60v-60zM620 780v-36h-480v-326h440v-36h-440v-346h500v-36h-540v780h520z" />
    <glyph glyph-name="Igrave" unicode="&#xcc;" horiz-adv-x="280" 
d="M64 1030l94 -208h-35l-106 208h47zM160 0h-40v780h40v-780z" />
    <glyph glyph-name="Iacute" unicode="&#xcd;" horiz-adv-x="280" 
d="M263 1030l-106 -208h-35l94 208h47zM160 0h-40v780h40v-780z" />
    <glyph glyph-name="Icircumflex" unicode="&#xce;" horiz-adv-x="280" 
d="M277 822l-137 175l-137 -175h-38l153 208h44l153 -208h-38zM160 0h-40v780h40v-780z" />
    <glyph glyph-name="Idieresis" unicode="&#xcf;" horiz-adv-x="280" 
d="M75 913h-60v60h60v-60zM266 913h-60v60h60v-60zM160 0h-40v780h40v-780z" />
    <glyph glyph-name="Eth" unicode="&#xd0;" horiz-adv-x="830" 
d="M413 36q79 0 136 17.5t93.5 58.5t53.5 109t17 169t-17 169t-53.5 109t-93.5 58.5t-136 17.5h-228v-327h268v-34h-268v-347h228zM25 417h120v363h257q85 0 151 -18t111 -63t68 -120t23 -189t-23 -189t-68 -120t-111 -63t-151 -18h-257v383h-120v34z" />
    <glyph glyph-name="Ntilde" unicode="&#xd1;" horiz-adv-x="761" 
d="M565 965q-5 -42 -35.5 -66.5t-70.5 -22.5q-28 1 -48.5 12t-38 23.5t-35.5 24t-41 12.5q-29 2 -50.5 -13.5t-26.5 -49.5l-28 5q5 42 35.5 66.5t70.5 22.5q29 -1 49 -12t37.5 -23.5t35.5 -23.5t41 -13q29 -2 50.5 13.5t26.5 49.5zM256 544l-120 188l3 -272v-460h-39v780h49
l356 -544l120 -188l-3 272v460h39v-780h-49z" />
    <glyph glyph-name="Ograve" unicode="&#xd2;" horiz-adv-x="800" 
d="M324 1030l94 -208h-35l-106 208h47zM400 754q-81 0 -136 -28t-89 -77.5t-48.5 -115.5t-14.5 -143q0 -76 14.5 -142.5t48.5 -116t89 -77.5t136 -28t136 28t89 77.5t48.5 116t14.5 142.5q0 77 -14.5 143t-48.5 115.5t-89 77.5t-136 28zM400 -10q-90 0 -152.5 30t-102 83
t-57.5 126.5t-18 160.5t18 160.5t57.5 126.5t102 83t152.5 30t152.5 -30t102 -83t57.5 -126.5t18 -160.5t-18 -160.5t-57.5 -126.5t-102 -83t-152.5 -30z" />
    <glyph glyph-name="Oacute" unicode="&#xd3;" horiz-adv-x="800" 
d="M523 1030l-106 -208h-35l94 208h47zM400 754q-81 0 -136 -28t-89 -77.5t-48.5 -115.5t-14.5 -143q0 -76 14.5 -142.5t48.5 -116t89 -77.5t136 -28t136 28t89 77.5t48.5 116t14.5 142.5q0 77 -14.5 143t-48.5 115.5t-89 77.5t-136 28zM400 -10q-90 0 -152.5 30t-102 83
t-57.5 126.5t-18 160.5t18 160.5t57.5 126.5t102 83t152.5 30t152.5 -30t102 -83t57.5 -126.5t18 -160.5t-18 -160.5t-57.5 -126.5t-102 -83t-152.5 -30z" />
    <glyph glyph-name="Ocircumflex" unicode="&#xd4;" horiz-adv-x="800" 
d="M537 822l-137 175l-137 -175h-38l153 208h44l153 -208h-38zM400 754q-81 0 -136 -28t-89 -77.5t-48.5 -115.5t-14.5 -143q0 -76 14.5 -142.5t48.5 -116t89 -77.5t136 -28t136 28t89 77.5t48.5 116t14.5 142.5q0 77 -14.5 143t-48.5 115.5t-89 77.5t-136 28zM400 -10
q-90 0 -152.5 30t-102 83t-57.5 126.5t-18 160.5t18 160.5t57.5 126.5t102 83t152.5 30t152.5 -30t102 -83t57.5 -126.5t18 -160.5t-18 -160.5t-57.5 -126.5t-102 -83t-152.5 -30z" />
    <glyph glyph-name="Otilde" unicode="&#xd5;" horiz-adv-x="800" 
d="M585 965q-5 -42 -35.5 -66.5t-70.5 -22.5q-28 1 -48.5 12t-38 23.5t-35.5 24t-41 12.5q-29 2 -50.5 -13.5t-26.5 -49.5l-28 5q5 42 35.5 66.5t70.5 22.5q29 -1 49 -12t37.5 -23.5t35.5 -23.5t41 -13q29 -2 50.5 13.5t26.5 49.5zM400 754q-81 0 -136 -28t-89 -77.5
t-48.5 -115.5t-14.5 -143q0 -76 14.5 -142.5t48.5 -116t89 -77.5t136 -28t136 28t89 77.5t48.5 116t14.5 142.5q0 77 -14.5 143t-48.5 115.5t-89 77.5t-136 28zM400 -10q-90 0 -152.5 30t-102 83t-57.5 126.5t-18 160.5t18 160.5t57.5 126.5t102 83t152.5 30t152.5 -30
t102 -83t57.5 -126.5t18 -160.5t-18 -160.5t-57.5 -126.5t-102 -83t-152.5 -30z" />
    <glyph glyph-name="Odieresis" unicode="&#xd6;" horiz-adv-x="800" 
d="M526 913h-60v60h60v-60zM335 913h-60v60h60v-60zM400 754q-81 0 -136 -28t-89 -77.5t-48.5 -115.5t-14.5 -143q0 -76 14.5 -142.5t48.5 -116t89 -77.5t136 -28t136 28t89 77.5t48.5 116t14.5 142.5q0 77 -14.5 143t-48.5 115.5t-89 77.5t-136 28zM400 -10
q-90 0 -152.5 30t-102 83t-57.5 126.5t-18 160.5t18 160.5t57.5 126.5t102 83t152.5 30t152.5 -30t102 -83t57.5 -126.5t18 -160.5t-18 -160.5t-57.5 -126.5t-102 -83t-152.5 -30z" />
    <glyph glyph-name="multiply" unicode="&#xd7;" horiz-adv-x="490" 
d="M221 390l-140 140l24 24l140 -140l140 140l24 -24l-140 -140l140 -140l-24 -24l-140 140l-140 -140l-24 24z" />
    <glyph glyph-name="Oslash" unicode="&#xd8;" horiz-adv-x="800" 
d="M111 390q0 -87 19 -159t64 -123l385 591q-32 26 -76.5 40.5t-102.5 14.5q-81 0 -136.5 -28t-89 -77.5t-48.5 -115.5t-15 -143zM689 390q0 87 -19 159t-64 123l-385 -591q32 -26 76.5 -40.5t102.5 -14.5q81 0 136.5 28t89 77.5t48.5 116t15 142.5zM730 390
q0 -87 -18 -160.5t-57.5 -126.5t-102 -83t-152.5 -30q-63 0 -112.5 15t-87.5 44l-32 -49h-45l48 73q-54 54 -77.5 135.5t-23.5 181.5q0 87 18 160.5t57.5 126.5t102 83t152.5 30q63 0 112.5 -15t87.5 -44l32 49h45l-48 -73q54 -54 77.5 -135.5t23.5 -181.5z" />
    <glyph glyph-name="Ugrave" unicode="&#xd9;" horiz-adv-x="784" 
d="M392 -10q-87 0 -145.5 19t-94.5 54t-51.5 85t-15.5 111v521h41v-528q0 -51 12.5 -92.5t43.5 -71t82 -45.5t128 -16t128 16t82 45.5t43.5 71t12.5 92.5v528h41v-521q0 -61 -15.5 -111t-51.5 -85t-94.5 -54t-145.5 -19zM316 1030l94 -208h-35l-106 208h47z" />
    <glyph glyph-name="Uacute" unicode="&#xda;" horiz-adv-x="784" 
d="M515 1030l-106 -208h-35l94 208h47zM392 -10q-87 0 -145.5 19t-94.5 54t-51.5 85t-15.5 111v521h41v-528q0 -51 12.5 -92.5t43.5 -71t82 -45.5t128 -16t128 16t82 45.5t43.5 71t12.5 92.5v528h41v-521q0 -61 -15.5 -111t-51.5 -85t-94.5 -54t-145.5 -19z" />
    <glyph glyph-name="Ucircumflex" unicode="&#xdb;" horiz-adv-x="784" 
d="M392 -10q-87 0 -145.5 19t-94.5 54t-51.5 85t-15.5 111v521h41v-528q0 -51 12.5 -92.5t43.5 -71t82 -45.5t128 -16t128 16t82 45.5t43.5 71t12.5 92.5v528h41v-521q0 -61 -15.5 -111t-51.5 -85t-94.5 -54t-145.5 -19zM529 822l-137 175l-137 -175h-38l153 208h44
l153 -208h-38z" />
    <glyph glyph-name="Udieresis" unicode="&#xdc;" horiz-adv-x="784" 
d="M392 -10q-87 0 -145.5 19t-94.5 54t-51.5 85t-15.5 111v521h41v-528q0 -51 12.5 -92.5t43.5 -71t82 -45.5t128 -16t128 16t82 45.5t43.5 71t12.5 92.5v528h41v-521q0 -61 -15.5 -111t-51.5 -85t-94.5 -54t-145.5 -19zM327 913h-60v60h60v-60zM518 913h-60v60h60v-60z" />
    <glyph glyph-name="Yacute" unicode="&#xdd;" horiz-adv-x="670" 
d="M458 1030l-106 -208h-35l94 208h47zM69 780l164 -262l102 -164l102 164l164 262h49l-295 -463v-317h-40v317l-295 463h49z" />
    <glyph glyph-name="Thorn" unicode="&#xde;" horiz-adv-x="665" 
d="M412 214q33 0 62.5 8.5t52.5 29.5t36.5 57t13.5 91t-13.5 91t-36.5 57t-52.5 29.5t-62.5 8.5h-272v-372h272zM140 622h256q45 0 85 -9.5t70.5 -34t48 -67.5t17.5 -111q0 -67 -17.5 -110.5t-48 -68t-70.5 -34t-85 -9.5h-256v-178h-40v780h40v-158z" />
    <glyph glyph-name="germandbls" unicode="&#xdf;" horiz-adv-x="648" 
d="M337 810q45 0 83.5 -10t67 -30.5t44.5 -51.5t16 -74q0 -39 -12.5 -64.5t-32 -43t-42.5 -28.5t-45 -20q-19 -8 -39 -16.5t-36 -20t-26 -28.5t-10 -41q0 -27 10 -44t27.5 -27.5t41.5 -16.5l52 -13q26 -6 55 -14t53.5 -22.5t40.5 -38.5t16 -63t-14 -68t-38.5 -48t-57.5 -28
t-70 -9q-51 0 -84.5 12t-53.5 31.5t-30 45t-13 51.5l42 6q4 -22 11 -42t22 -35.5t40 -24.5t65 -9q26 0 50.5 6.5t44.5 20.5t32 36t12 52q0 29 -12 47t-32 29t-45.5 17.5t-53.5 13.5q-18 5 -44 11.5t-50 20t-40.5 37t-16.5 62.5q0 38 14.5 62t35 39t43.5 24t40 16
q26 11 47 21t36 23.5t23.5 32t8.5 45.5q0 35 -14.5 60t-38.5 41.5t-56 24t-67 7.5q-60 0 -98 -16t-60 -44t-30.5 -64.5t-8.5 -77.5v-572h-38v562q0 122 54 185t181 63z" />
    <glyph glyph-name="agrave" unicode="&#xe0;" horiz-adv-x="561" 
d="M205 800l94 -208h-35l-106 208h47zM103 138q0 -55 33.5 -84t96.5 -29q45 0 80 10.5t60.5 29t43 42.5t27.5 51v137l-197 -31q-30 -5 -56.5 -13t-46 -22t-30.5 -36t-11 -55zM62 138q0 39 13.5 66.5t38.5 46.5t60 30.5t78 17.5l192 29v42q0 77 -42.5 106.5t-120.5 30.5
q-72 2 -107 -25t-45 -76l-40 5q6 28 19.5 51.5t36.5 41t56.5 27t79.5 9.5q97 0 149 -43t52 -131v-258l5 -108h-30l-13 100q-16 -30 -40 -50.5t-52.5 -34t-59 -19.5t-59.5 -6q-43 0 -75 11t-53.5 30.5t-32 47t-10.5 59.5z" />
    <glyph glyph-name="aacute" unicode="&#xe1;" horiz-adv-x="561" 
d="M404 800l-106 -208h-35l94 208h47zM103 138q0 -55 33.5 -84t96.5 -29q45 0 80 10.5t60.5 29t43 42.5t27.5 51v137l-197 -31q-30 -5 -56.5 -13t-46 -22t-30.5 -36t-11 -55zM62 138q0 39 13.5 66.5t38.5 46.5t60 30.5t78 17.5l192 29v42q0 77 -42.5 106.5t-120.5 30.5
q-72 2 -107 -25t-45 -76l-40 5q6 28 19.5 51.5t36.5 41t56.5 27t79.5 9.5q97 0 149 -43t52 -131v-258l5 -108h-30l-13 100q-16 -30 -40 -50.5t-52.5 -34t-59 -19.5t-59.5 -6q-43 0 -75 11t-53.5 30.5t-32 47t-10.5 59.5z" />
    <glyph glyph-name="acircumflex" unicode="&#xe2;" horiz-adv-x="561" 
d="M418 592l-137 175l-137 -175h-38l153 208h44l153 -208h-38zM103 138q0 -55 33.5 -84t96.5 -29q45 0 80 10.5t60.5 29t43 42.5t27.5 51v137l-197 -31q-30 -5 -56.5 -13t-46 -22t-30.5 -36t-11 -55zM62 138q0 39 13.5 66.5t38.5 46.5t60 30.5t78 17.5l192 29v42
q0 77 -42.5 106.5t-120.5 30.5q-72 2 -107 -25t-45 -76l-40 5q6 28 19.5 51.5t36.5 41t56.5 27t79.5 9.5q97 0 149 -43t52 -131v-258l5 -108h-30l-13 100q-16 -30 -40 -50.5t-52.5 -34t-59 -19.5t-59.5 -6q-43 0 -75 11t-53.5 30.5t-32 47t-10.5 59.5z" />
    <glyph glyph-name="atilde" unicode="&#xe3;" horiz-adv-x="561" 
d="M466 735q-5 -42 -35.5 -66.5t-70.5 -22.5q-28 1 -48.5 12t-38 23.5t-35.5 24t-41 12.5q-29 2 -50.5 -13.5t-26.5 -49.5l-28 5q5 42 35.5 66.5t70.5 22.5q29 -1 49 -12t37.5 -23.5t35.5 -23.5t41 -13q29 -2 50.5 13.5t26.5 49.5zM103 138q0 -55 33.5 -84t96.5 -29
q45 0 80 10.5t60.5 29t43 42.5t27.5 51v137l-197 -31q-30 -5 -56.5 -13t-46 -22t-30.5 -36t-11 -55zM62 138q0 39 13.5 66.5t38.5 46.5t60 30.5t78 17.5l192 29v42q0 77 -42.5 106.5t-120.5 30.5q-72 2 -107 -25t-45 -76l-40 5q6 28 19.5 51.5t36.5 41t56.5 27t79.5 9.5
q97 0 149 -43t52 -131v-258l5 -108h-30l-13 100q-16 -30 -40 -50.5t-52.5 -34t-59 -19.5t-59.5 -6q-43 0 -75 11t-53.5 30.5t-32 47t-10.5 59.5z" />
    <glyph glyph-name="adieresis" unicode="&#xe4;" horiz-adv-x="561" 
d="M407 683h-60v60h60v-60zM216 683h-60v60h60v-60zM103 138q0 -55 33.5 -84t96.5 -29q45 0 80 10.5t60.5 29t43 42.5t27.5 51v137l-197 -31q-30 -5 -56.5 -13t-46 -22t-30.5 -36t-11 -55zM62 138q0 39 13.5 66.5t38.5 46.5t60 30.5t78 17.5l192 29v42q0 77 -42.5 106.5
t-120.5 30.5q-72 2 -107 -25t-45 -76l-40 5q6 28 19.5 51.5t36.5 41t56.5 27t79.5 9.5q97 0 149 -43t52 -131v-258l5 -108h-30l-13 100q-16 -30 -40 -50.5t-52.5 -34t-59 -19.5t-59.5 -6q-43 0 -75 11t-53.5 30.5t-32 47t-10.5 59.5z" />
    <glyph glyph-name="aring" unicode="&#xe5;" horiz-adv-x="561" 
d="M364 696q0 40 -21 63t-62 23t-62 -23t-21 -63t21 -63t62 -23t62 23t21 63zM167 696q0 50 30 82t84 32t84 -32t30 -82t-30 -82t-84 -32t-84 32t-30 82zM103 138q0 -55 33.5 -84t96.5 -29q45 0 80 10.5t60.5 29t43 42.5t27.5 51v137l-197 -31q-30 -5 -56.5 -13t-46 -22
t-30.5 -36t-11 -55zM62 138q0 39 13.5 66.5t38.5 46.5t60 30.5t78 17.5l192 29v42q0 77 -42.5 106.5t-120.5 30.5q-72 2 -107 -25t-45 -76l-40 5q6 28 19.5 51.5t36.5 41t56.5 27t79.5 9.5q97 0 149 -43t52 -131v-258l5 -108h-30l-13 100q-16 -30 -40 -50.5t-52.5 -34
t-59 -19.5t-59.5 -6q-43 0 -75 11t-53.5 30.5t-32 47t-10.5 59.5z" />
    <glyph glyph-name="ae" unicode="&#xe6;" horiz-adv-x="963" 
d="M103 138q0 -55 33.5 -84t96.5 -29q87 0 141 42t79 109q-5 18 -6.5 36t-2.5 39h-197q-31 0 -57 -5.5t-45.5 -18t-30.5 -34.5t-11 -55zM680 505q-40 0 -76 -15.5t-62 -44t-41.5 -69.5t-15.5 -91h370q-1 51 -10 91.5t-29.5 69t-53.5 44t-82 15.5zM485 251q2 -52 17 -93.5
t41 -71t61 -45.5t76 -16q75 0 115.5 28.5t51.5 79.5l42 -6q-12 -62 -63.5 -99.5t-145.5 -37.5q-74 0 -127.5 35t-81.5 101q-25 -43 -55 -69.5t-61 -41.5t-62 -20t-60 -5q-43 0 -75 11t-53.5 30.5t-32 47t-10.5 59.5q0 77 52 112t138 35h192v85q0 77 -42.5 106.5t-120.5 30.5
q-72 2 -107 -25t-45 -76l-40 5q6 28 19.5 51.5t36.5 41t56.5 27t79.5 9.5q80 0 130 -30.5t65 -95.5q26 60 80 93t124 33q61 0 103 -19.5t67.5 -55.5t36.5 -86.5t11 -112.5v-15h-413z" />
    <glyph glyph-name="ccedilla" unicode="&#xe7;" horiz-adv-x="562" 
d="M60 265q0 62 17 112.5t48 86.5t74.5 56t96.5 20q94 0 145.5 -37.5t63.5 -99.5l-42 -6q-11 51 -51.5 79.5t-115.5 28.5q-42 0 -78 -17t-61.5 -48.5t-40 -75.5t-14.5 -99t14.5 -99t40 -75.5t61.5 -48.5t78 -17q75 0 115.5 28.5t51.5 79.5l42 -6q-12 -62 -63.5 -99.5
t-145.5 -37.5l-9 -32q51 -8 79.5 -28t28.5 -58q0 -44 -31.5 -63t-77.5 -19q-23 0 -45.5 5.5t-33.5 11.5l10 29q8 -4 18 -8q8 -3 19 -5.5t24 -2.5q35 -1 58.5 9t23.5 42q0 19 -11 30t-27.5 17t-35.5 9t-36 5l20 60q-48 4 -86.5 25.5t-66 57t-42.5 84t-15 106.5z" />
    <glyph glyph-name="egrave" unicode="&#xe8;" horiz-adv-x="579" 
d="M220 800l94 -208h-35l-106 208h47zM296 505q-40 0 -74.5 -15.5t-60.5 -44t-41.5 -69.5t-18.5 -91h370q-1 51 -10 91.5t-29.5 69t-53.5 44t-82 15.5zM101 251q2 -52 17 -93.5t41 -71t61 -45.5t76 -16q75 0 115.5 28.5t51.5 79.5l42 -6q-12 -62 -63.5 -99.5t-145.5 -37.5
q-53 0 -96.5 20t-74.5 56t-48 86.5t-17 112.5t17 112.5t48 86.5t74.5 56t96.5 20q61 0 103 -19.5t67.5 -55.5t36.5 -86.5t11 -112.5v-15h-413z" />
    <glyph glyph-name="eacute" unicode="&#xe9;" horiz-adv-x="579" 
d="M419 800l-106 -208h-35l94 208h47zM296 505q-40 0 -74.5 -15.5t-60.5 -44t-41.5 -69.5t-18.5 -91h370q-1 51 -10 91.5t-29.5 69t-53.5 44t-82 15.5zM101 251q2 -52 17 -93.5t41 -71t61 -45.5t76 -16q75 0 115.5 28.5t51.5 79.5l42 -6q-12 -62 -63.5 -99.5t-145.5 -37.5
q-53 0 -96.5 20t-74.5 56t-48 86.5t-17 112.5t17 112.5t48 86.5t74.5 56t96.5 20q61 0 103 -19.5t67.5 -55.5t36.5 -86.5t11 -112.5v-15h-413z" />
    <glyph glyph-name="ecircumflex" unicode="&#xea;" horiz-adv-x="579" 
d="M433 592l-137 175l-137 -175h-38l153 208h44l153 -208h-38zM296 505q-40 0 -74.5 -15.5t-60.5 -44t-41.5 -69.5t-18.5 -91h370q-1 51 -10 91.5t-29.5 69t-53.5 44t-82 15.5zM101 251q2 -52 17 -93.5t41 -71t61 -45.5t76 -16q75 0 115.5 28.5t51.5 79.5l42 -6
q-12 -62 -63.5 -99.5t-145.5 -37.5q-53 0 -96.5 20t-74.5 56t-48 86.5t-17 112.5t17 112.5t48 86.5t74.5 56t96.5 20q61 0 103 -19.5t67.5 -55.5t36.5 -86.5t11 -112.5v-15h-413z" />
    <glyph glyph-name="edieresis" unicode="&#xeb;" horiz-adv-x="579" 
d="M422 683h-60v60h60v-60zM231 683h-60v60h60v-60zM296 505q-40 0 -74.5 -15.5t-60.5 -44t-41.5 -69.5t-18.5 -91h370q-1 51 -10 91.5t-29.5 69t-53.5 44t-82 15.5zM101 251q2 -52 17 -93.5t41 -71t61 -45.5t76 -16q75 0 115.5 28.5t51.5 79.5l42 -6q-12 -62 -63.5 -99.5
t-145.5 -37.5q-53 0 -96.5 20t-74.5 56t-48 86.5t-17 112.5t17 112.5t48 86.5t74.5 56t96.5 20q61 0 103 -19.5t67.5 -55.5t36.5 -86.5t11 -112.5v-15h-413z" />
    <glyph glyph-name="igrave" unicode="&#xec;" horiz-adv-x="236" 
d="M42 800l94 -208h-35l-106 208h47zM99 530h38v-530h-38v530z" />
    <glyph glyph-name="iacute" unicode="&#xed;" horiz-adv-x="236" 
d="M241 800l-106 -208h-35l94 208h47zM99 530h38v-530h-38v530z" />
    <glyph glyph-name="icircumflex" unicode="&#xee;" horiz-adv-x="236" 
d="M255 592l-137 175l-137 -175h-38l153 208h44l153 -208h-38zM99 530h38v-530h-38v530z" />
    <glyph glyph-name="idieresis" unicode="&#xef;" horiz-adv-x="236" 
d="M53 683h-60v60h60v-60zM244 683h-60v60h60v-60zM99 530h38v-530h-38v530z" />
    <glyph glyph-name="eth" unicode="&#xf0;" horiz-adv-x="598" 
d="M293 505q-94 0 -142.5 -62.5t-48.5 -177.5t48.5 -177.5t142.5 -62.5t145.5 62.5t51.5 177.5t-51.5 177.5t-145.5 62.5zM376 708q30 -30 58 -70t49.5 -93t34.5 -121t14 -152v-7q0 -130 -63 -202.5t-176 -72.5t-173 72.5t-60 202.5t60 202.5t173 72.5q60 0 106.5 -25
t72.5 -59q-20 85 -55.5 142t-78.5 95l-165 -63v35l137 52q-39 30 -77.5 49.5t-70.5 33.5h77q25 -11 53 -27.5t57 -40.5l124 48v-35z" />
    <glyph glyph-name="ntilde" unicode="&#xf1;" horiz-adv-x="565" 
d="M468 735q-5 -42 -35.5 -66.5t-70.5 -22.5q-28 1 -48.5 12t-38 23.5t-35.5 24t-41 12.5q-29 2 -50.5 -13.5t-26.5 -49.5l-28 5q5 42 35.5 66.5t70.5 22.5q29 -1 49 -12t37.5 -23.5t35.5 -23.5t41 -13q29 -2 50.5 13.5t26.5 49.5zM117 430q25 48 77.5 79t117.5 31
q38 0 71.5 -10.5t58 -30.5t38.5 -49t14 -66v-384h-38v369q0 66 -42.5 101t-111.5 35q-39 0 -70 -13.5t-54 -33t-38 -42.5t-23 -43v-373h-38v422l-5 108h30z" />
    <glyph glyph-name="ograve" unicode="&#xf2;" horiz-adv-x="592" 
d="M220 800l94 -208h-35l-106 208h47zM296 505q-94 0 -144 -62.5t-50 -177.5t50 -177.5t144 -62.5t144 62.5t50 177.5t-50 177.5t-144 62.5zM296 -10q-113 0 -174.5 72.5t-61.5 202.5t61.5 202.5t174.5 72.5t174.5 -72.5t61.5 -202.5t-61.5 -202.5t-174.5 -72.5z" />
    <glyph glyph-name="oacute" unicode="&#xf3;" horiz-adv-x="592" 
d="M419 800l-106 -208h-35l94 208h47zM296 505q-94 0 -144 -62.5t-50 -177.5t50 -177.5t144 -62.5t144 62.5t50 177.5t-50 177.5t-144 62.5zM296 -10q-113 0 -174.5 72.5t-61.5 202.5t61.5 202.5t174.5 72.5t174.5 -72.5t61.5 -202.5t-61.5 -202.5t-174.5 -72.5z" />
    <glyph glyph-name="ocircumflex" unicode="&#xf4;" horiz-adv-x="592" 
d="M433 592l-137 175l-137 -175h-38l153 208h44l153 -208h-38zM296 -10q-113 0 -174.5 72.5t-61.5 202.5t61.5 202.5t174.5 72.5t174.5 -72.5t61.5 -202.5t-61.5 -202.5t-174.5 -72.5zM296 505q-94 0 -144 -62.5t-50 -177.5t50 -177.5t144 -62.5t144 62.5t50 177.5
t-50 177.5t-144 62.5z" />
    <glyph glyph-name="otilde" unicode="&#xf5;" horiz-adv-x="592" 
d="M481 735q-5 -42 -35.5 -66.5t-70.5 -22.5q-28 1 -48.5 12t-38 23.5t-35.5 24t-41 12.5q-29 2 -50.5 -13.5t-26.5 -49.5l-28 5q5 42 35.5 66.5t70.5 22.5q29 -1 49 -12t37.5 -23.5t35.5 -23.5t41 -13q29 -2 50.5 13.5t26.5 49.5zM296 -10q-113 0 -174.5 72.5t-61.5 202.5
t61.5 202.5t174.5 72.5t174.5 -72.5t61.5 -202.5t-61.5 -202.5t-174.5 -72.5zM296 505q-94 0 -144 -62.5t-50 -177.5t50 -177.5t144 -62.5t144 62.5t50 177.5t-50 177.5t-144 62.5z" />
    <glyph glyph-name="odieresis" unicode="&#xf6;" horiz-adv-x="592" 
d="M422 683h-60v60h60v-60zM231 683h-60v60h60v-60zM296 505q-94 0 -144 -62.5t-50 -177.5t50 -177.5t144 -62.5t144 62.5t50 177.5t-50 177.5t-144 62.5zM296 -10q-113 0 -174.5 72.5t-61.5 202.5t61.5 202.5t174.5 72.5t174.5 -72.5t61.5 -202.5t-61.5 -202.5
t-174.5 -72.5z" />
    <glyph glyph-name="divide" unicode="&#xf7;" horiz-adv-x="490" 
d="M275 523h-60v60h60v-60zM275 197h-60v60h60v-60zM50 373v34h390v-34h-390z" />
    <glyph glyph-name="oslash" unicode="&#xf8;" horiz-adv-x="592" 
d="M102 265q0 -118 54 -181l255 387q-46 34 -115 34q-94 0 -144 -62.5t-50 -177.5zM490 265q0 118 -54 181l-255 -387q46 -34 115 -34q94 0 144 62.5t50 177.5zM532 265q0 -130 -61.5 -202.5t-174.5 -72.5q-80 0 -135 38l-19 -28h-41l33 50q-74 72 -74 215q0 130 61.5 202.5
t174.5 72.5q80 0 135 -38l19 28h41l-33 -50q74 -72 74 -215z" />
    <glyph glyph-name="ugrave" unicode="&#xf9;" horiz-adv-x="565" 
d="M203 800l94 -208h-35l-106 208h47zM448 100q-25 -48 -77.5 -79t-117.5 -31q-38 0 -71.5 10.5t-58 30.5t-38.5 49t-14 66v384h38v-369q0 -66 42.5 -101t111.5 -35q39 0 70 13.5t54 33t38.5 43t22.5 42.5v373h38v-422l5 -108h-30z" />
    <glyph glyph-name="uacute" unicode="&#xfa;" horiz-adv-x="565" 
d="M402 800l-106 -208h-35l94 208h47zM448 100q-25 -48 -77.5 -79t-117.5 -31q-38 0 -71.5 10.5t-58 30.5t-38.5 49t-14 66v384h38v-369q0 -66 42.5 -101t111.5 -35q39 0 70 13.5t54 33t38.5 43t22.5 42.5v373h38v-422l5 -108h-30z" />
    <glyph glyph-name="ucircumflex" unicode="&#xfb;" horiz-adv-x="565" 
d="M416 592l-137 175l-137 -175h-38l153 208h44l153 -208h-38zM448 100q-25 -48 -77.5 -79t-117.5 -31q-38 0 -71.5 10.5t-58 30.5t-38.5 49t-14 66v384h38v-369q0 -66 42.5 -101t111.5 -35q39 0 70 13.5t54 33t38.5 43t22.5 42.5v373h38v-422l5 -108h-30z" />
    <glyph glyph-name="udieresis" unicode="&#xfc;" horiz-adv-x="565" 
d="M214 683h-60v60h60v-60zM405 683h-60v60h60v-60zM448 100q-25 -48 -77.5 -79t-117.5 -31q-38 0 -71.5 10.5t-58 30.5t-38.5 49t-14 66v384h38v-369q0 -66 42.5 -101t111.5 -35q39 0 70 13.5t54 33t38.5 43t22.5 42.5v373h38v-422l5 -108h-30z" />
    <glyph glyph-name="yacute" unicode="&#xfd;" horiz-adv-x="512" 
d="M379 800l-106 -208h-35l94 208h47zM287 47l-99 -247h-43l91 220l-208 510h45l113 -284l70 -183l70 183l114 284h44z" />
    <glyph glyph-name="thorn" unicode="&#xfe;" horiz-adv-x="590" 
d="M117 158q8 -20 22 -43t36.5 -43t55 -33.5t76.5 -13.5q42 0 76 17t57 48.5t35.5 75.5t12.5 99t-12.5 99t-35.5 75.5t-57 48.5t-76 17q-44 0 -76.5 -13.5t-55 -33.5t-36.5 -43t-22 -43v-214zM79 800h38v-370q14 27 35.5 47.5t47 34.5t54 21t55.5 7q52 0 93 -20t69.5 -56
t43.5 -86.5t15 -112.5t-15 -112.5t-43.5 -86.5t-69.5 -56t-93 -20q-27 0 -55.5 7t-54 21t-47 34.5t-35.5 47.5v-300h-38v1000z" />
    <glyph glyph-name="ydieresis" unicode="&#xff;" horiz-adv-x="512" 
d="M191 683h-60v60h60v-60zM382 683h-60v60h60v-60zM287 47l-99 -247h-43l91 220l-208 510h45l113 -284l70 -183l70 183l114 284h44z" />
    <glyph glyph-name="OE" unicode="&#x152;" horiz-adv-x="1110" 
d="M412 744q-79 0 -136 -17.5t-93.5 -58.5t-53.5 -109t-17 -169t17 -169t53.5 -109t93.5 -58.5t136 -17.5h138v708h-138zM70 390q0 114 23 189t68 120t111 63t151 18h587v-36h-420v-326h380v-36h-380v-346h440v-36h-607q-85 0 -151 18t-111 63t-68 120t-23 189z" />
    <glyph glyph-name="oe" unicode="&#x153;" horiz-adv-x="1009" 
d="M532 251q2 -52 17 -93.5t40.5 -71t60.5 -45.5t76 -16q75 0 115.5 28.5t51.5 79.5l42 -6q-12 -62 -63.5 -99.5t-145.5 -37.5q-76 0 -131.5 39.5t-82.5 108.5q-25 -72 -80 -110t-136 -38q-113 0 -174.5 72.5t-61.5 202.5t61.5 202.5t174.5 72.5q81 0 136 -38.5t80 -109.5
q27 69 82.5 108.5t131.5 39.5q61 0 103 -19.5t67.5 -55.5t36.5 -86.5t11 -112.5v-15h-412zM726 505q-40 0 -74.5 -15.5t-60 -44t-41 -69t-18.5 -90.5h369q-1 51 -10 91.5t-29.5 69t-53.5 43.5t-82 15zM296 505q-94 0 -144 -62.5t-50 -177.5t50 -177.5t144 -62.5t144 62.5
t50 177.5t-50 177.5t-144 62.5z" />
    <glyph glyph-name="Scaron" unicode="&#x160;" horiz-adv-x="710" 
d="M226 1030l137 -175l137 175h38l-153 -208h-44l-153 208h38zM353 -10q-77 0 -129 14t-85 38.5t-49.5 59t-22.5 75.5l41 6q5 -38 19 -67t42 -49t73 -30.5t111 -10.5q41 0 84.5 8.5t79 29.5t58.5 56t23 88q0 45 -10 76t-36.5 52.5t-72 34.5t-117.5 21q-62 7 -112 17
t-84.5 30.5t-53 54.5t-18.5 89q0 56 22 95.5t58 64.5t83 36t97 11q72 0 123 -13t84 -36.5t50 -56.5t22 -74l-41 -6q-5 37 -20.5 65t-44 47t-71.5 28.5t-102 9.5q-28 0 -66 -6t-71.5 -24t-57 -51.5t-23.5 -89.5q0 -38 10 -64.5t36 -44t70.5 -28t112.5 -17.5q71 -7 123 -20.5
t85.5 -38t49.5 -63.5t16 -99q0 -58 -23.5 -99.5t-63.5 -67.5t-91.5 -38.5t-107.5 -12.5z" />
    <glyph glyph-name="scaron" unicode="&#x161;" horiz-adv-x="534" 
d="M130 800l137 -175l137 175h38l-153 -208h-44l-153 208h38zM264 505q-25 0 -52.5 -6t-50.5 -20t-37.5 -36t-14.5 -55q0 -28 10 -45t30 -26.5t52 -14t75 -9.5q36 -4 73.5 -10.5t67.5 -21.5t49 -41t19 -70q0 -42 -17.5 -72.5t-47.5 -50t-71 -28.5t-88 -9q-94 0 -145.5 37.5
t-63.5 99.5l42 6q11 -51 51 -79.5t115 -28.5q38 0 71 6.5t58 21.5t39.5 38.5t14.5 57.5t-14 53.5t-39 31t-59.5 16.5t-74.5 9q-32 3 -65.5 8.5t-60.5 19t-44 37t-17 63.5q0 41 16 69.5t43 47.5t62.5 27.5t74.5 8.5q94 0 145.5 -37.5t63.5 -99.5l-42 -6q-11 51 -52 79.5
t-116 28.5z" />
    <glyph glyph-name="Ydieresis" unicode="&#x178;" horiz-adv-x="670" 
d="M270 913h-60v60h60v-60zM461 913h-60v60h60v-60zM69 780l164 -262l102 -164l102 164l164 262h49l-295 -463v-317h-40v317l-295 463h49z" />
    <glyph glyph-name="florin" unicode="&#x192;" horiz-adv-x="400" 
d="M23 383v34h124v149q0 41 4 79t20.5 66.5t50 45.5t91.5 17q17 0 32.5 -2.5t24.5 -6.5l-8 -36q-5 2 -18 5.5t-31 3.5q-30 0 -53.5 -5.5t-40 -21t-25.5 -44t-9 -74.5v-176h163v-34h-163v-385q0 -41 -4 -79t-20.5 -66.5t-49.5 -45.5t-92 -17q-17 0 -32.5 2.5t-24.5 6.5l8 36
q5 -2 18 -5.5t31 -3.5q30 0 54 5.5t40.5 21t25 44t8.5 74.5v412h-124z" />
    <glyph glyph-name="circumflex" unicode="&#x2c6;" horiz-adv-x="600" 
d="M437 592l-137 175l-137 -175h-38l153 208h44l153 -208h-38z" />
    <glyph glyph-name="tilde" unicode="&#x2dc;" horiz-adv-x="600" 
d="M485 735q-5 -42 -35.5 -66.5t-70.5 -22.5q-28 1 -48.5 12t-38 23.5t-35.5 24t-41 12.5q-29 2 -50.5 -13.5t-26.5 -49.5l-28 5q5 42 35.5 66.5t70.5 22.5q29 -1 49 -12t37.5 -23.5t35.5 -23.5t41 -13q29 -2 50.5 13.5t26.5 49.5z" />
    <glyph glyph-name="endash" unicode="&#x2013;" horiz-adv-x="500" 
d="M50 318v34h400v-34h-400z" />
    <glyph glyph-name="emdash" unicode="&#x2014;" horiz-adv-x="1000" 
d="M950 318h-900v34h900v-34z" />
    <glyph glyph-name="quoteleft" unicode="&#x2018;" horiz-adv-x="125" 
d="M-3 530l70 250h21l-37 -250h-54z" />
    <glyph glyph-name="quoteright" unicode="&#x2019;" horiz-adv-x="125" 
d="M128 780l-70 -250h-21l37 250h54z" />
    <glyph glyph-name="quotesinglbase" unicode="&#x201a;" horiz-adv-x="135" 
d="M108 86l-70 -250h-21l37 250h54z" />
    <glyph glyph-name="quotedblleft" unicode="&#x201c;" horiz-adv-x="265" 
d="M137 530l70 250h21l-37 -250h-54zM-3 530l70 250h21l-37 -250h-54z" />
    <glyph glyph-name="quotedblright" unicode="&#x201d;" horiz-adv-x="265" 
d="M268 780l-70 -250h-21l37 250h54zM128 780l-70 -250h-21l37 250h54z" />
    <glyph glyph-name="quotedblbase" unicode="&#x201e;" horiz-adv-x="275" 
d="M248 86l-70 -250h-21l37 250h54zM108 86l-70 -250h-21l37 250h54z" />
    <glyph glyph-name="dagger" unicode="&#x2020;" horiz-adv-x="300" 
d="M298 614l-141 10l18 -234h-50l17 234l-140 -10v36l140 -11l-10 141h36l-11 -141l141 11v-36z" />
    <glyph glyph-name="daggerdbl" unicode="&#x2021;" horiz-adv-x="300" 
d="M298 453l-141 10l18 -234h-50l17 234l-140 -10v36l140 -11l-5 73l5 73l-140 -10v36l140 -11l-10 141h36l-11 -141l141 11v-36l-141 10l6 -73l-6 -73l141 11v-36z" />
    <glyph glyph-name="bullet" unicode="&#x2022;" horiz-adv-x="370" 
d="M314 206h-258v258h258v-258z" />
    <glyph glyph-name="ellipsis" unicode="&#x2026;" horiz-adv-x="1020" 
d="M870 0h-60v60h60v-60zM540 0h-60v60h60v-60zM210 0h-60v60h60v-60z" />
    <glyph glyph-name="perthousand" unicode="&#x2030;" horiz-adv-x="1508" 
d="M1259 -10q-85 0 -134.5 51t-49.5 157q0 105 49.5 155.5t134.5 50.5q84 0 134 -51t50 -155q0 -106 -49.5 -157t-134.5 -51zM1259 371q-30 0 -57 -9t-47 -29.5t-32 -53.5t-12 -81t12 -81.5t32 -54.5t47 -30t57 -9t56.5 9t47 30t32.5 54.5t12 81.5t-12 81t-32.5 53.5
t-47 29.5t-56.5 9zM807 -10q-85 0 -134.5 51t-49.5 157q0 105 49.5 155.5t134.5 50.5q84 0 134 -51t50 -155q0 -106 -49.5 -157t-134.5 -51zM807 371q-30 0 -57 -9t-47 -29.5t-32 -53.5t-12 -81t12 -81.5t32 -54.5t47 -30t57 -9t56.5 9t47 30t32.5 54.5t12 81.5t-12 81
t-32.5 53.5t-47 29.5t-56.5 9zM296 0h-42l506 764h42zM249 774q85 0 134.5 -51t49.5 -157q0 -105 -49.5 -155.5t-134.5 -50.5q-84 0 -134 51t-50 155q0 106 49.5 157t134.5 51zM249 393q30 0 57 9t47 29.5t32 53.5t12 81t-12 81.5t-32 54.5t-47 30t-57 9t-56.5 -9t-47 -30
t-32.5 -54.5t-12 -81.5t12 -81t32.5 -53.5t47 -29.5t56.5 -9z" />
    <glyph glyph-name="guilsinglleft" unicode="&#x2039;" horiz-adv-x="300" 
d="M250 397l-167 -132l167 -132v-43l-208 151v48l208 151v-43z" />
    <glyph glyph-name="guilsinglright" unicode="&#x203a;" horiz-adv-x="300" 
d="M50 440l208 -151v-48l-208 -151v43l167 132l-167 132v43z" />
    <glyph glyph-name="Euro" unicode="&#x20ac;" horiz-adv-x="775" 
d="M40 322h112q-1 13 -1.5 28.5t-0.5 31.5q0 15 0.5 30.5t1.5 29.5h-112v36h115q8 69 29.5 123.5t57.5 93t87.5 59t120.5 20.5q65 0 111 -15.5t76.5 -42.5t48 -64.5t26.5 -81.5l-42 -6q-15 83 -66 127.5t-154 44.5q-60 0 -104 -18t-74.5 -51t-48.5 -81t-26 -108h348l-11 -36
h-341q-1 -13 -1.5 -29t-0.5 -31q0 -16 0.5 -31.5t1.5 -28.5h303l-11 -36h-288q8 -60 26 -108t48.5 -81t74.5 -51t104 -18q103 0 154 44.5t66 127.5l42 -6q-9 -44 -26.5 -81.5t-48 -64.5t-76.5 -42.5t-111 -15.5q-69 0 -120.5 20.5t-87.5 59t-57.5 93t-29.5 123.5h-115v36z
" />
    <glyph glyph-name="trademark" unicode="&#x2122;" horiz-adv-x="540" 
d="M116 510h-31v241h-85v29h201v-29h-85v-241zM360 510l-68 156l-17 43l1 -51v-148h-29v270h26l75 -175l25 -61l25 61l75 175h26v-270h-29v148l1 51l-17 -43l-68 -156h-26z" />
    </font>
</defs>
</svg>
